<?xml version="1.0" encoding="utf-8"?>
<!-- Generator: Adobe Illustrator 24.1.0, SVG Export Plug-In . SVG Version: 6.00 Build 0)  -->
<svg version="1.1" id="Layer_1" xmlns="http://www.w3.org/2000/svg" xmlns:xlink="http://www.w3.org/1999/xlink" x="0px" y="0px"
	 viewBox="0 0 298.45 204.41" style="enable-background:new 0 0 298.45 204.41;" xml:space="preserve">
<style type="text/css">
	.st0{fill:#DD4122;}
</style>
<g>
	<path class="st0" d="M78.2,56.23c0-0.3-0.3-0.3-0.3,0c-0.3,0-0.89,0-0.89,0.3c0,0.3,0.3,0.3,0.3,0c0.59,0.89-3.56,2.67-3.56,1.78
		c-1.48,1.78-4.15,2.08-5.93,3.56c4.45,0.89,10.09,2.97,15.43,3.86c7.72,3.56,13.35,10.39,14.25,19.59
		c-0.89,2.08-2.08,3.86-2.67,6.23c-0.89-0.3-0.59,0.89-1.49,0.59c-0.3,2.67-2.37,4.75-4.75,4.45c-0.59,1.19-2.37,3.56-3.56,2.37
		c0.3-0.3,1.78,0,1.48-1.19c1.19,0.3,0-0.89,0,0c-0.59,0.3-1.48,0.3-1.48,1.19c-0.3,0-0.59,0.3-0.59,0.59c-1.19-0.3-2.08,0-3.26,0.3
		c0-1.19-0.3,0-0.89-0.3c-0.59,0.3-0.3,1.49-0.59,2.08c-0.89,0-1.49,0.59-1.78,1.48c-1.48-0.59-2.97,0.3-3.56,1.48
		c-1.19-0.59-0.59-0.3-1.78,0c0-0.89,1.19-0.59,0.89-1.78c-1.48,0.3-1.48,1.48-1.48,2.08c-1.78,0.59-3.27,0-3.86,2.08
		c-1.78-2.08-5.05,0.3-5.64,2.08c-1.48-1.19-3.26,2.97-5.34,1.19c-0.89,0.3-0.3,0.59-0.3,1.19c-1.49-1.19-5.64,3.56-7.12,1.19
		c-3.26,1.48-7.12,2.37-10.98,3.56c-0.3,0-0.3-0.59-0.3-0.89c-0.59,0-0.89,0.59-1.49,0.59c0.59,0.59,0.59,0.3,0,0.89
		c-1.19,0,0-0.3-0.3-0.89c-1.19,0-1.78,0-2.08,0.89c0,0.59,0.3,0,0.89,0c-2.97,2.08-6.83,1.78-10.98,2.37
		c0-0.89,0.89-0.59,1.78-0.59c-1.48-1.19-4.45,0-6.23-0.59c0-0.59,0.89-0.3,0.59-0.89c0.3,0,0.59,0,0.59-0.3c0-0.3-0.59,0-0.59,0.3
		c-2.67,0-3.26,0.3-5.05-0.59c0-0.59,0.3-0.59,0.89-0.59c-0.89-0.89-2.67-0.89-3.56-2.67c-0.89,0.3-1.19,0.59-2.08,0.3
		c0.59-0.3,1.78-0.3,1.78-1.48c-0.3-0.89-1.78-0.3-2.67-0.3c0-0.59-0.59-0.59-0.3-1.49c4.45-2.67,10.68-2.97,15.43-3.56
		c3.27-1.49,7.72-1.78,11.58-2.97c-0.3-0.89-0.89-1.78-2.37-1.48c-2.67-10.09,1.78-24.63,3.26-34.43c0-1.48-1.78-2.37-1.48-3.26
		c-1.49-0.89-2.67-1.78-3.26-3.26c0.59-1.19,0.59-1.78,0.3-3.26c2.08-0.59,3.56-1.49,5.34-2.37c0.3-5.93,1.19-14.25,1.19-18.99
		c-2.67,0-2.67,2.97-5.64,2.97c-1.49-1.49-0.89-4.75-3.27-5.34c0.59-1.19,1.49-2.08,2.08-3.26c-1.78,0.59,0-2.37-0.89-2.37
		c0.59-1.19,2.08-1.19,2.97-2.37c0.3,0,0.3,0,0.3-0.3c0.3-0.3,0-0.3,0,0c-0.3,0-0.3,0-0.3,0.3c-0.3,0-0.89,0-1.19,0
		c2.67-2.67,6.23-3.27,10.39-3.56c-1.78-1.19-3.26-0.89-4.75-0.89c5.64-2.67,13.65-3.27,20.48-2.67
		c16.03-1.19,33.83,5.05,34.72,23.15c-0.59,1.48-1.48,2.67-2.08,4.15c-0.59,0-0.59-0.3-0.59-0.89c-1.78,4.16-6.83,8.9-12.17,9.5
		c-0.89,0.3-0.59,1.48-1.78,1.48v-0.3H78.2z M12.02,112.32c0,0.59-1.49,0.59-0.89-0.3C11.72,112.02,11.72,112.32,12.02,112.32z
		 M12.91,112.02 M14.1,114.1c0.3,0,0.59,0.59,0.59,0C14.69,113.8,14.1,113.8,14.1,114.1z M19.73,117.66c0,0.3-0.3,0.3-0.59,0.3
		C19.14,117.66,19.44,117.66,19.73,117.66z M19.73,114.69 M21.81,116.47 M23.89,117.36c0.3,0,0.59,0,0.59-0.3
		C24.19,117.06,23.89,117.06,23.89,117.36z M24.48,116.47c-0.3,1.19,1.49,0.3,0.89-0.3C25.08,115.88,24.48,116.47,24.48,116.47z
		 M27.75,117.66c-0.59,0-0.89,0.3-1.19,0.59C27.15,118.25,28.04,118.55,27.75,117.66z M29.23,116.77c0-1.19-0.89-0.89-1.48-0.59
		C27.45,117.06,28.64,116.77,29.23,116.77z M29.53,117.36c-0.59,0-0.89,0.3-0.89,0.59C29.23,117.95,29.53,117.66,29.53,117.36z
		 M29.53,30.41c-0.89-0.3,0.3-1.19,0.89-1.19C30.71,30.11,29.53,29.81,29.53,30.41z M29.53,31 M29.82,27.14 M30.42,29.22
		 M30.42,117.66c0.3,0,0.59,0,0.59-0.3C30.71,117.36,30.42,117.36,30.42,117.66z M31.9,115.88 M33.68,26.25 M34.87,24.47
		 M35.46,114.99 M36.35,23.58c0-0.59,0.59-0.59,1.49-0.59C37.54,23.58,36.95,23.58,36.35,23.58z M37.84,114.1 M38.73,114.99
		 M39.32,21.8 M39.62,114.1 M44.96,21.5 M45.26,115.28 M45.85,21.8 M48.22,86.79c0.3,0.3,0.59,0.89,0.59,1.49
		c-1.48,0.59-1.78,4.15-0.89,5.04c-1.49,1.78-0.89,5.34-0.89,6.83c3.26-0.59,5.34-2.37,8.61-2.97c3.86-2.37,8.9-3.56,12.46-5.94
		c5.94-2.97,12.76-5.34,16.62-10.68c-3.27-1.19-6.53-1.19-10.09-2.37c-0.3-1.19,1.19-0.3,1.19-1.19c-1.19,0.59-1.78,0-1.19-1.19
		c-0.89,0-2.67-0.89-3.26-0.3c0.89,0.3,1.19,0.3,0.89,1.19c0.59,0.3,1.78,0,1.78,0.89c-4.16,0.3-6.23-2.67-9.5-0.59
		c0-1.78-2.97,0.59-4.75-0.89c0.3-0.3,0.59-1.48,0-1.48c-0.3,0.59-0.3,1.48-0.89,1.78c-0.59,0-0.59-0.89-0.89-1.19
		c-0.89,0-0.89,0.89-2.08,0.59c0-0.59-0.3-0.59-0.59-0.89c0.3,0,1.19,0,1.19-0.3c-1.48-0.3-3.56,1.19-5.64,0.59
		C49.41,78.48,49.41,83.83,48.22,86.79z M47.34,21.21 M48.82,21.5c0.3,0,0.59,0,0.89,0c0-0.59-0.3-0.59-0.89-0.59c0-1.19-1.19,0,0,0
		C48.82,21.21,48.82,21.21,48.82,21.5z M51.79,21.21c0.3,0,0.89,0,0.89-0.3C52.38,20.91,51.79,20.91,51.79,21.21z M53.27,74.63
		 M55.35,48.51c10.39-2.37,18.7-6.83,25.23-13.06c-8.01-3.26-17.51-3.56-25.52-2.67C55.05,38.42,55.35,42.87,55.35,48.51z
		 M55.64,20.91c0.3,0,0.59,0,0.59-0.3C55.94,20.62,55.64,20.62,55.64,20.91z M56.83,72.85c0.59,0.3,1.19,0.89,1.48,0
		C58.02,72.55,56.83,72.25,56.83,72.85z M59.2,53.56 M59.5,73.14 M60.69,75.22c0.3,0,0.59,0,0.59-0.3
		C60.99,74.92,60.69,74.92,60.69,75.22z M62.17,73.74 M64.25,105.79c0.3,0,0.59,0,0.59-0.3C64.55,105.49,64.25,105.49,64.25,105.79z
		 M65.44,73.74c-0.89,0.59,0.3,0.89,0.59,0.3C65.73,74.03,65.73,73.74,65.44,73.74z M65.73,61.27c0.3,0,0.59,0,0.59-0.3
		C66.03,60.97,65.73,60.97,65.73,61.27z M66.33,74.63 M66.92,77c0,0.3-0.3,0.3-0.59,0.3C66.33,77,66.62,77,66.92,77z M68.7,74.92
		 M70.48,74.92 M70.78,59.2c0.3,0,0.59,0.3,0.89,0.3c0-0.3,0-0.89,0-1.19c-0.3,0-0.59,0.3-0.89,0.3
		C70.78,58.9,70.78,58.9,70.78,59.2z M72.86,101.63c-0.89,0-2.37,0.89-0.89,1.19C71.37,101.63,73.15,102.82,72.86,101.63z M71.37,77
		c0.3,0,0.59,0,0.59-0.3C71.67,76.7,71.37,76.7,71.37,77z M72.86,78.19c0,0.3-0.3,0.3-0.59,0.3C72.26,78.19,72.56,78.19,72.86,78.19
		z M74.34,55.63c0,0.3-0.59,0.59,0,0.89C74.34,56.23,74.93,55.93,74.34,55.63z M77.01,77c0.3,0,0.59,0,0.59-0.3
		C77.31,76.7,77.01,76.7,77.01,77z M81.17,99.85"/>
	<path class="st0" d="M152.6,39.31c-0.27,0-0.27,0.54-0.27,0.81c-0.81-0.81-0.54,0.27-1.34,0.27c0.27-1.34,0.81-0.81,0.81-3.49
		c0.27,0,0.54,0.27,0.81,0.27c0.27-2.15-1.88-1.88-0.81-4.3c0.54,0.54,0.54,1.61,1.08,2.15c1.08-0.81,0.27-3.22-0.27-3.76
		c1.34-0.81,1.34,1.61,2.15,2.15c0.27,0,0.54-0.54,0.81-0.54c0-1.08-1.08-1.08-1.34-2.15c0-0.27,0.54-0.27,0.81-0.54
		c0-0.81-1.08-0.27-0.81-1.34c1.08-0.27,1.88,2.15,2.42,3.49c0-1.08,1.08-2.42,1.08-2.69c1.34-0.27,0.54,3.76,1.88,4.3
		c0,0.54,0,0.81,0,1.34c1.08,1.08,0.54,2.42,1.61,2.96c0.27,0.81-0.54,0.54-0.54,1.08c0.27,0.27,0.81,0.54,1.61,0.54
		c-1.08,4.3,1.61,8.6-1.34,12.09c0,0.27,0.54,0.27,0.81,0.27c-0.27,7.26-3.23,13.44-4.03,19.35c-1.34,3.23-3.49,5.64-4.3,9.41
		c-3.49,4.57-5.64,10.21-10.48,13.44c-0.27,0.81-0.54,1.08-0.81,1.88c-0.27,0-0.54,0.27-1.08,0.27c-1.08,4.3-8.06,3.22-9.14,6.18
		c-0.27,0-0.81,0-0.81-0.27c-3.22,2.42-10.21,2.42-14.24,1.08c-1.61,0.27-2.69-0.27-3.76,0c0-0.54-0.81-0.27-0.54-0.81
		c-0.54,0-0.54,0.54-1.34,0.27c-5.38-2.69-8.33-8.06-10.48-14.24c-6.45-15.86-2.69-35.2,2.42-49.72c0.27-3.76,2.15-5.64,2.15-9.68
		c1.34-1.61,1.61-4.03,4.3-3.22c0.54,0.27,0.54,0.81,0.81,1.34c0.81-0.81,1.34-0.81,2.69-0.54c0.81,2.15,4.03,2.15,4.84,4.3
		c0,2.15,0,2.69,0.81,3.49c-1.08,6.72-2.15,14.51-4.3,20.96c-0.54,4.84-0.81,10.48-0.81,15.32c1.08,6.18,1.34,12.36,5.37,16.93
		c0,0.27-0.27,0.27-0.27,0.81c1.08,1.08,2.15,2.42,3.49,3.23c5.11-1.61,7.52-5.64,11.56-8.33c4.57-7.79,9.41-15.05,12.63-23.92
		c-0.81-2.15,1.08-4.03,1.88-5.64c0-0.54-0.81-0.27-0.54-0.81c1.34,0,0.54-2.15,1.88-2.42c-0.27-0.54-1.08-0.54-0.81-1.61
		c0.54,1.08,1.34-0.27,1.34,1.08c0.81-0.81,1.61-1.61,1.88-3.23c-1.08-0.27-1.34,1.61-1.08,1.88c0,0.54-1.34,0.27-1.61,0
		c0-0.54,0.27-1.34,1.08-1.08c0-1.08-1.34-0.54-0.81-1.88c0.81-0.27,0.27,0.81,0.81,1.07c0.81,0,0.54-0.81,0.54-1.61
		c-0.27-0.81-0.54,0.81-1.34,0.27c1.34-1.08,0.54-2.69,2.15-3.49c0.27,1.08-0.54,1.61-0.27,2.69c1.08-1.61,0.54-3.76,0.81-4.84
		C152.87,40.92,152.87,39.57,152.6,39.31z M113.64,75.59C113.37,75.32,113.37,75.59,113.64,75.59
		C113.9,76.12,113.9,75.59,113.64,75.59z M113.9,102.73 M143.47,71.02c-0.27,0.54,0.54,1.34,0.54,0.54
		C143.73,71.56,143.73,71.02,143.47,71.02z M146.69,64.3 M149.11,58.39 M149.92,51.4C150.19,51.13,149.92,51.13,149.92,51.4
		C149.11,51.4,150.19,52.47,149.92,51.4z M149.92,53.82 M150.72,55.7c-0.54,0-0.81,0.27-0.81,0.54
		C150.45,56.24,150.72,55.97,150.72,55.7z M150.45,57.04c0-0.27,0-0.27,0-0.54c-0.27,0-0.27,0-0.54,0c0,0.27,0,0.27,0,0.54
		C150.19,57.04,150.19,57.04,150.45,57.04z M150.72,37.43c-0.54,0-0.27-1.34,0-1.61C151.53,36.08,150.72,36.89,150.72,37.43z
		 M150.99,49.79c-0.54,0.54-0.27,1.88-0.54,2.42C150.99,51.94,152.07,49.79,150.99,49.79z M150.45,52.74c0.27,0,0.54,0.54,0.54,0
		C150.99,52.47,150.45,52.47,150.45,52.74z M150.72,42.53 M151.26,41.99c-0.81-0.27-0.27-0.81-0.27-1.34
		C151.8,40.92,151.26,41.46,151.26,41.99z M151.26,38.23 M151.8,36.62 M152.87,30.44 M153.14,36.62 M155.02,75.32
		c0-0.54,0.81-1.34-0.27-1.34c0.54,1.08-0.81,0.27-0.81,0.81C154.48,74.78,154.22,75.59,155.02,75.32z M154.48,75.86
		c-0.27,0.54,1.08,0,0.81-0.27C155.02,75.32,154.48,75.86,154.48,75.86z M157.17,29.63c0,0.27,0,0.27,0,0.54c-0.27,0-0.27,0-0.54,0
		c0-0.27,0-0.27,0-0.54C156.9,29.63,156.9,29.63,157.17,29.63z M156.9,32.86 M157.44,67.26 M157.71,29.09 M160.13,56.51
		c0.54,0.54,0.81-0.81,0.27-0.81c0,0.27,0,0.27-0.27,0.27C160.13,56.24,160.13,56.24,160.13,56.51z M160.93,42.8
		c0,0.81,0,1.34,0.54,1.34C161.74,43.34,161.74,43.07,160.93,42.8z M161.74,48.44c-0.54,0-0.81,0.27-0.81,0.54
		C161.47,48.98,161.74,48.71,161.74,48.44z M161.2,42.53 M161.2,47.37"/>
	<path class="st0" d="M184.04,46.03c-0.27,0-0.27,0.27,0,0.27c0.54,0.54,0,0.27,0,1.08c-0.54-0.27-0.81-0.27-1.08,0
		c0.54,1.61-0.27,2.96,0,4.03c-0.54-1.08-0.81,1.08-1.34,1.61c-0.27,0.27-1.08,1.88,0,1.61c-0.27,1.34-0.27,1.34-0.54,2.69
		c-0.27,0-0.27-0.27-0.27-0.54c-1.34,1.88,0,5.11-1.61,7.26v-0.27c0.27-0.27,0-0.27,0,0c-0.54,1.34-0.81,2.42-0.81,3.5
		c-2.42,4.03-4.03,13.17-5.64,19.35c4.3-0.81,7.79-3.22,12.63-3.22c5.64-2.96,13.17-3.49,20.43-5.11c0.54,0,0.54,0.27,0.81,0.54
		c2.15-1.08,4.84-0.27,7.52-0.27c-0.27,0.81-2.15-0.27-2.15,0.81c0.27,0.27,2.15-0.27,3.22,0c0.27,1.08,1.34,1.61,2.69,1.61
		c-0.54,0.81-0.54,0.81,0,1.88c-0.54,0-0.81,0-1.34,0c0,0.54,1.34,0,1.88,0.27c0,0.81-0.54,0.81-0.54,1.34
		c-0.54,0-0.54-0.27-1.08-0.27c-0.27-0.27-0.27,0,0,0c-0.81,1.34-1.61,1.61-2.96,2.15c0,0.27,0.27,0.27,0.54,0.27
		c-4.57,0.81-5.91,0.81-10.75,1.61c1.08,2.15,2.42-1.34,3.76,0.54c0.54-0.54,1.08-1.08,2.42-0.81c0,0.54-0.27,0.54-0.27,1.08
		c-4.3,0.27-7.79,1.34-11.29,2.42c-2.69-0.54-3.49,1.88-5.11,1.61c0-0.27,0.54-0.27,0.81-0.27c-1.08-0.81-4.57,0.54-5.11,1.88
		c-0.27,0-0.27-0.27-0.54-0.27c0.27-0.27,0.27-0.54,0-0.54c-0.54,0-0.81,0.81,0,0.54c0.27,1.08-1.34,0.27-1.08,1.08
		C186.46,95.2,187,95.2,187,94.4c-1.88,0.27-2.69,1.88-4.84,1.61c-1.08,0.81-0.27,1.61-2.42,1.34c-0.27-0.27-0.27,0,0,0
		c0.27,1.08,2.42,1.08,2.42-0.54c0.54,0.54,1.07,0.54,1.88,0.27c0.27,1.34-0.81,1.34-1.61,1.34c-2.42,1.34-4.84,2.69-7.52,3.76
		c-0.81,0.54-1.34,1.34-2.42,1.61c0,0.54-0.54,0.81-0.54,1.34c-4.3-0.81-6.99-3.23-10.48-4.84c-0.81-0.27-0.81,0.27-1.34,0.27
		c-2.15-1.08-2.42-2.69-2.69-4.84c3.5-14.24,7.26-31.98,11.56-44.61c0-2.69,1.34-4.3,1.34-6.99c2.42-6.99,3.49-13.71,5.11-22.31
		c1.08-2.96,1.34-7.25,2.69-10.75c2.96,0,5.1,0.81,7.52,1.34c0,0.54,0,0.81-0.27,1.08c0.81-0.27,1.61-1.08,1.34,0.54
		c0.81,0,0-1.61,1.07-1.34c-0.27,0.27-0.27,0.81-0.27,1.34c1.88,0.81,2.15,3.49,3.76,4.57c-1.61,4.84-1.88,9.41-3.23,14.51
		c-0.54,0-0.27,0.81-1.08,0.54c0.54,1.61,0.27,4.84-1.34,6.45c0.54,2.69-0.81,4.3-1.61,6.18V46.03z M178.67,98.7
		c0.27,0,0.54,0,0.81,0c0-0.27,0-0.54,0-0.81c-0.27,0-0.27,0-0.54,0c0,0.27,0,0.27-0.27,0.27C178.67,98.43,178.67,98.43,178.67,98.7
		z M181.62,53.01 M181.62,54.63 M182.43,93.86 M183.23,91.71c0.27,0,0.54,0.54,0.54,0C183.77,91.44,183.23,91.44,183.23,91.71z
		 M184.04,97.09 M184.85,93.59 M185.38,96.01c1.34-0.27-1.34,1.61,0,0.27V96.01z M187,92.79c-0.54,0,0.27-1.34-0.81-0.81
		c0.81,1.08-0.27,0.81-0.54,1.61C186.19,93.59,186.73,93.32,187,92.79z M185.92,96.01 M186.73,35.81 M187.27,96.28 M187.8,92.79
		c0.27,0,0.54,0.54,0.54,0C188.34,92.52,187.8,92.52,187.8,92.79z M188.07,96.28 M188.34,91.44 M188.34,91.98
		c0.27,0,0.54,0,0.54-0.27C188.61,91.71,188.34,91.71,188.34,91.98z M189.15,92.52 M190.49,92.25c0.27,0,0.27,0,0.54,0
		c0-0.27,0-0.27,0.27-0.27c0-0.27,0-0.27,0-0.54c-0.27,0-0.27,0-0.54,0c0,0.27,0,0.27-0.27,0.27
		C190.49,91.98,190.49,91.98,190.49,92.25z M192.1,93.59 M192.91,91.44c0.27,0,0.81,0,0.81-0.27
		C193.45,91.17,192.91,91.17,192.91,91.44z M193.98,89.02c0.27,0,0.54,0,0.54-0.27C194.25,88.75,193.98,88.75,193.98,89.02z
		 M195.06,93.32 M195.33,90.64c0.27,0,0.27,0,0.27,0.27c0.27,0,0.27,0,0.54,0C196.67,90.37,195.33,90.1,195.33,90.64
		C194.79,90.91,195.33,90.91,195.33,90.64z M196.67,90.1 M197.21,89.83c-0.27,0.54,0.81,1.34,0.81,0.54
		C197.48,90.37,197.75,89.56,197.21,89.83z M197.48,88.22 M197.48,91.17 M198.02,87.95 M199.09,89.56c-0.54,0-0.54-0.27-0.27-0.54
		c-0.81,0-0.81,0.27-0.81,1.07C198.55,90.1,199.09,90.1,199.09,89.56z M198.29,91.44 M199.9,91.44 M200.97,89.02
		C202.05,89.29,200.97,88.22,200.97,89.02C200.43,89.29,200.97,89.29,200.97,89.02z M202.58,88.75c-0.54,0.81,0.81,0.81,0.81,0.27
		C203.12,89.02,203.12,88.75,202.58,88.75z M203.66,90.64 M213.06,86.07c0.27,0,0.54,0,0.54-0.27
		C213.33,85.8,213.06,85.8,213.06,86.07z M214.41,85.26c0.27,0,0.54,0,0.54-0.27C214.68,84.99,214.41,84.99,214.41,85.26z
		 M214.95,86.34 M215.48,83.11"/>
	<path class="st0" d="M250.95,17.27c0.27,0,0.27-0.27,0-0.27c0.81-1.34,3.23-1.34,4.3-2.69c4.57,0.81,6.99,4.03,9.67,6.45
		c0.27,0.27,0.81,0,1.08,0.27c1.88,2.69,1.88,6.45,2.96,9.41c0,0.54,0,1.08-0.54,1.08c0.54,0.81,0.27,1.88,0.54,2.42
		c-0.81,4.03,0.54,8.06,0,12.1c1.08,5.64,0.81,13.44,8.06,11.02c1.61,0.81,1.34,1.61,1.07,2.15c-2.42,0.54-3.49,2.69-5.91,3.49
		c2.42,8.87,3.76,17.2,6.45,26.61c-1.34-0.81-0.54,1.08-0.81,1.34c-0.54,0-0.54-0.27-1.08-0.27c0.81,2.96-1.88,4.57-4.03,4.3
		c-0.54-1.34-2.42-2.15-3.76-1.88c-3.76-5.91-5.64-16.12-8.06-22.84c-1.61-0.27-4.03,1.88-4.57,0.81c-0.54,0-0.54,0.54-0.54,1.08
		c-0.81-0.54-1.88,0-2.69,0.27c0,0.27,0,0.81,0.27,0.81c-2.42,1.08-6.72,1.61-10.48,2.42c-0.27,0-0.27,0.54,0,0.54
		c-0.54,0.81-1.08-0.27-1.88,0c-1.88,0.27-1.08,2.42-2.69,2.69c-3.49,9.41-6.99,19.08-10.48,27.14c-1.88,1.34-4.57,1.08-6.45,2.15
		c-1.08-1.34-3.23-1.34-4.03-2.96c-2.42,1.08-4.03-1.88-5.37-3.49c2.42-10.75,7.52-19.89,11.56-30.1c-1.08-1.61-1.34-2.15-2.15-3.49
		c0.54-0.54,1.07-0.81,1.88-0.81c0.27-0.81,0.81-1.61,1.08-2.42c1.08-0.27,1.88-1.08,2.69-1.61c3.23-7.52,4.84-13.71,9.41-20.43
		c1.34-4.3,3.49-6.72,4.57-11.02c0.27-0.27,1.08-0.27,1.34-0.54c0-1.08,1.08-1.34,0.54-2.42c2.42-1.61,3.49-5.37,5.11-8.33
		c0.27,0,0.27,0.54,0.27,0.81c0.54-0.27,0.54-1.08,0.54-1.88c0.54-0.27,0.54-0.54,1.34-0.27c0.27-0.81-0.27-1.34,0.81-1.88V17.27z
		 M225.15,107.57c0,0.27,0,0.27,0,0.54c-0.27,0-0.27,0-0.54,0c0-0.27,0-0.27,0-0.54C224.88,107.57,224.88,107.57,225.15,107.57z
		 M241.55,76.39 M243.7,76.39c-0.81-0.54,1.08-1.61,1.61-0.81C245.04,76.12,243.7,75.59,243.7,76.39z M257.4,57.31
		c-0.81-4.03-1.88-10.21-2.42-15.59c0-0.27-0.27-0.27-0.54-0.27c-2.42,6.18-5.91,11.02-7.79,17.47
		C250.95,58.92,253.91,58.12,257.4,57.31z M276.75,60.54"/>
	<path class="st0" d="M242.52,129.68c-0.27-0.01-0.28,0.26-0.81-0.02c0.01-0.27-0.27-0.01,0,0c-0.01,0.54-0.02,0.81-0.3,1.34
		c-3.26,1.54-8.11,2.24-11.61,2.17c-6.51,2.81-15.11,2.63-21.62,5.17c-1.32-1.1-1.61-0.04-3.22-0.34c-1.64,1.31-5.16,2.31-8.38,1.97
		c-1.64,1.31-4.35,2.05-6.22,1.74c-8.92,2.49-18.38,4.7-27.05,8.01c-0.27-0.01-0.8-0.29-1.07-0.29c-9.48,3.29-19.24,6.84-29,10.65
		c-4.63,2.86-9.25,4.9-13.88,7.76c0.51,1.36,3.5-0.46,3.73,1.43c0.01-0.27-0.26-0.54-0.54-0.01c-0.01,0.54,0.26,0.27,0.53,0.28
		c-0.01,0.27,0.26,0.28,0.27,0.01c0.27,0.01,0.27-0.26,0.01-0.27c0.27-0.26,0.28-0.53,0.29-0.8c3.74,0.89,8.87-0.07,13.15,0.83
		c-0.28,0.53-0.82,0.79-0.29,0.8c0.79,0.55,0.82-0.52,0.56-0.8c0.78,1.09,0.27,0.01,1.6,0.3c-0.55,0.53,0.26,0.54,0.52,0.82
		c-0.01,0.27-0.01,0.27-0.01,0.54c-0.54-0.01-0.82,0.52-1.34-0.03c-1.34-0.03-3.76-0.35-4.57,0.17c-0.81,0.25-1.88-0.04-2.41-0.59
		c-0.26-0.27-0.27-0.01,0,0c-2.99,1.55-8.04-1.25-11.03,0.57c-1.07-0.02-0.02,0.81-0.57,1.33c0.54,0.01,1.07,0.02,1.08-0.51
		c0.53,0.55,1.05,1.37,1.86,0.85c-2.17,1.03-3.22-0.07-5.37-0.12c0.23,1.89,3.76,0.08,4.26,1.71c0.56-0.8,1.89-0.5,2.97-0.47
		c-0.01,0.27-0.01,0.27,0.27,0.01c0.53,0.28-0.01,0.54-0.29,0.8c0.53,0.28,0.8,0.29,1.34,0.3c-0.28,0.53-1.89,0.23-1.87-0.31
		c0.28-0.26,0.01-0.27,0,0c-0.26-0.27-0.53-0.28-0.53-0.55c-0.27-0.01-0.28,0.53-0.01,0.54c-0.81,0.25-2.68-0.6-3.77,0.19
		c-0.82,0.52-2.68-0.33-3.76-0.35c-0.01,0.54,1.34,0.3,0.52,0.82c-0.81,0.25-0.28,0.26,0,0c0.26,0.28,0.26,0.28,0.53,0.28
		c-0.01,0.54,0.53,0.55-0.03,1.34c1.06,0.56,1.33,0.57,2.15,0.05c0.27,0.01-0.01,0.27,0.26,0.28c-1.09,0.78-1.92,1.57-3.5,0.46
		c1.06,0.83-0.01,0.54-1.35,0.24c1.05,1.1-0.81,0.25-1.36,0.78c-2.91-2.21-3.64-5.72-6.54-7.94c0.56-0.8-0.26-0.28,0.57-1.6
		c-1.07-0.29-0.28,0.53-0.83,1.06c-0.73-3.24-3.39-4.91-2.24-8.38c1.13-2.66,3.58-3.95,5.25-6.34c3.53-1.8,6.81-3.88,10.35-5.96
		c0.26,0.28,0.26,0.54,0.79,0.56c0.8,0.29-0.26-0.54,0.29-1.07c0.79,0.56,0.79,0.56,1.34,0.03c6.53-3.62,15.22-7.73,23.06-9.71
		c0.29-1.07,2.43-0.48,2.98-1.28c0.27,0.01,0.54,0.01,0.81,0.02c-0.01,0.27-0.01,0.54,0.26,0.54c0.01-0.27,0.01-0.54-0.26-0.54
		l0.01-0.27c0.26,0.27,0.26,0.27,0.53,0.28c-0.56,0.8,0.81,0.02,0,0c1.39-1.85,5.67-1.22,6.25-3.09c1.34,0.3,2.41,0.32,3.25-1
		c0.53,0.55,1.35-0.51,1.06,0.56c1.63-0.77,4.07-1.79,5.41-1.49c-0.24-1.35,2.18-1.3,3.8-1.53c-0.01,0.54,0.27,0.01,0,0
		c0.28-0.26,1.34,0.03,1.36-0.78c-2.68-0.33-5.39,0.42-8.6,0.08c0.02-0.81,0.81-0.25,0.82-0.79c-10.55,3.26-22.9,2.19-34.5,4.08
		c-0.78-1.09-1.6-0.57-2.4-0.86c-0.56,1.06-2.17,0.76-3.52,1.27c-0.27-0.01-0.26-0.27-0.53-0.55c1.09-0.51-0.79-0.56,0,0
		c-0.01,0.27-0.28,0.26-0.28,0.53c-1.35,0.24-4.04,0.45-5.1-0.11c-5.13,1.23-10.53,1.92-16.45,2.33
		c-15.91,2.07-31.27,4.15-46.66,7.04c-1.87-0.31-2.65-1.67-4.78-2.79c-0.22-2.16-2.33-4.08-1.21-5.94c-0.26-0.54-0.78-1.36-1.03-1.9
		c0.02-0.81,0.31-1.88,0.85-2.13c0.01-0.54-0.8-0.56-1.05-1.37c1.13-2.4,3.28-2.35,5.17-2.85c5.92-0.41,14.01-1.57,19.15-2.8
		c11.84-0.55,23.2-3.79,34.76-3.81c3.51-0.46,7.02-1.19,11.05-1.1c0.56-1.06,2.42,0.05,2.97-0.74c38.49-2.38,79.45-7.13,119.18-4.38
		c1.06,0.83,3.48,0.88,5.08,1.45c-0.82,0.79,1.02,2.71-0.08,3.76c-0.28,0.53,1.33,0.83,1.07,0.29c-0.56,1.06-0.31,2.14,1.02,2.71
		c-0.55,0.53-0.82,0.52-1.36,0.78c0.25,0.81,1.06,0.83,1.05,1.37c-0.02,0.81-0.55,0.53-1.08,0.24c-0.01,0.54,0.52,0.82,0.78,1.09
		c-0.28,0.53-0.82,0.79-1.35,0.51c0.53,0.55,0.77,1.63,0.22,2.16C242.82,128.07,243.07,129.16,242.52,129.68z M109.58,160.91
		 M112.59,158.55 M113.11,159.37 M113.68,158.04 M113.51,177.93 M115.01,158.34 M114.66,174.46 M115.4,165.07 M115.95,176.91
		C116.24,176.11,114.88,176.88,115.95,176.91C116.21,177.45,116.22,176.91,115.95,176.91z M116.58,160.52 M118.05,154.64
		c-0.01,0.27-0.54,0.26-0.82,0.52C117.76,155.71,118.59,154.65,118.05,154.64z M116.89,171.01 M117.14,171.82
		c0.27,0.01,0.54,0.01,0.54-0.26C117.41,171.56,117.14,171.56,117.14,171.82z M117.04,176.12 M117.61,162.69 M119.02,171.6
		c-0.26-0.28-0.26-0.54,0.02-0.81c-0.81,0.25-1.34-0.3-1.62,0.5C117.95,171.3,119.01,172.13,119.02,171.6z M117.58,176.14
		 M118.34,153.57 M117.93,172.38 M118.86,154.66 M118.51,170.51c0.27,0.01,0.54,0.01,0.54,0.01
		C118.78,170.25,118.52,170.24,118.51,170.51z M119.17,152.78 M118.64,176.96 M118.9,177.24 M119.71,152.53 M119.22,174.83
		 M119.84,171.08 M119.75,175.38c0.28-0.53,1.08-0.24,1.89-0.23C121.08,175.94,120.82,175.4,119.75,175.38z M120.31,161.95
		 M120.65,158.46 M121.76,132.41 M120.94,169.76 M120.9,171.91 M121.66,149.61l0.79,0.56C123.26,149.92,121.94,149.08,121.66,149.61
		z M121.64,150.42 M121.34,163.85 M121.74,157.95 M121.89,163.6 M121.76,169.24c0.27,0.01,0.54,0.01,0.81-0.25
		C122.31,168.98,122.04,168.97,121.76,169.24z M123.31,172.5c0.53,0.55-0.56,0.8-1.08,0.25C122.5,172.48,123.3,172.77,123.31,172.5z
		 M123.2,152.87 M122.7,175.44 M123.11,169.27l0.27,0.01l-0.01,0.27l-0.27-0.01L123.11,169.27z M124.32,150.75
		c0.27,0.01,0.54,0.01,0.54-0.26C124.59,150.48,124.33,150.48,124.32,150.75z M127.29,174.47l-0.28,0.26
		c-0.53-0.55-0.81-0.02-1.34-0.03c1.09-0.78-0.78-1.09-1.85-1.38c0.01-0.27,1.62-0.23,0.82-0.79c0.28-0.53,0.78,1.36,1.34,0.03
		c0.26,0.28-0.02,0.81-0.03,1.34c0.27,0.01,0.81,0.02,1.07,0.02C127.03,174.19,127.03,174.19,127.29,174.47z M124.35,173.87
		l-0.27-0.01C124.09,173.59,124.36,173.6,124.35,173.87z M125.66,151.04C124.59,150.48,125.37,151.84,125.66,151.04
		c0.27,0.01,0.27,0.01,0.27-0.26c1.34,0.03-0.51-1.35,0,0C125.66,150.77,125.66,150.77,125.66,151.04z M124.98,169.58
		 M125.62,152.66 M125.82,155.62 M125.51,170.13c0.27,0.01,0.27,0.01,0.54,0.01c0.28-0.26,0.28-0.26,0.02-0.81
		c-0.26-0.28-0.27-0.01,0,0C125.52,169.59,125.51,169.86,125.51,170.13z M125.4,174.96 M126.78,148.92
		C127.58,149.2,126.8,147.84,126.78,148.92C125.7,148.89,126.49,149.99,126.78,148.92z M126.26,148.1 M125.69,174.16 M128.21,132.55
		c-0.8-0.29-1.07-0.02-1.35,0.24C127.12,133.34,128.2,133.36,128.21,132.55z M126.71,152.14 M126.52,172.84
		c0.54-0.26,1.33,0.57,1.61,0.04c0.52,0.82-0.82,0.52-1.1,1.05C126.5,173.64,126.24,173.37,126.52,172.84z M128.36,175.03
		c-0.27-0.01-0.28,0.26-0.28,0.26c-0.82,0.52-0.53-0.28-1.34-0.3c0.01-0.27,0.27,0.01,0.27-0.26c0.8,0.29,0.82-0.79,1.62-0.23
		C128.63,174.76,128.63,174.76,128.36,175.03z M126.75,174.99 M127.3,174.2c0.01-0.27,0.01-0.27-0.26-0.27L127.3,174.2z
		 M127.3,174.2l0.27,0.01c-0.01,0.27-0.01,0.27-0.27,0.26L127.3,174.2z M128.13,148.41C127.6,148.4,128.13,148.68,128.13,148.41
		c0.27,0.01,0.27,0.01,0.54-0.26c0.28-0.26,0.01-0.27,0,0C128.41,148.15,128.41,148.15,128.13,148.41z M128,154.32
		C128.28,154.06,128.28,154.06,128,154.32C127.46,154.58,128,154.59,128,154.32z M127.67,169.37 M127.57,174.2 M128.71,146.81
		 M128.66,148.69 M128.21,169.65 M128.14,172.6 M128.08,175.29 M128.36,175.03 M129.18,149.78 M128.67,173.15 M128.64,174.5
		 M129.76,147.91 M129.63,153.55 M129.23,172.09 M129.17,174.78 M129.81,169.95 M129.74,173.18 M129.72,174.25 M132.34,152.8
		c-0.26-0.28-0.8-0.29-1.07-0.29c0.25,0.81-0.54,0.26-0.82,0.79C131.25,153.59,131.8,152.79,132.34,152.8
		c0.27,0.01,0.27,0.01,0.27-0.26c0.54,0.01,1.08-0.24,1.08-0.24c-0.53-0.28-0.8-0.29-1.08,0.24
		C132.34,152.53,132.34,152.53,132.34,152.8z M134.57,173.55c-0.01,0.54-0.81-0.02-0.82,0.79c-0.27-0.01-0.81-0.02,0.01-0.27
		c-0.53-0.55-2.41-0.59-2.96-0.06c-0.26-0.28-0.53-0.28-0.53-0.28c0.02-0.81,0.81,0.02,0.57-1.33c0.26,0.27,1.07,0.29,0.79,0.56
		c-0.54,0.26-0.01,0.27,0,0c0.8,0.56,1.36-0.78,2.42,0.05C133.77,173.26,134.31,173.28,134.57,173.55z M130.96,154.12
		 M131.04,175.09c-0.01,0.27-0.27,0.26-0.54,0.26C130.78,175.08,131.04,175.09,131.04,175.09z M130.8,174.01
		c0.27,0.01,0.26,0.27-0.01,0.27L130.8,174.01z M130.79,174.27 M131.37,172.41 M132.19,147.42 M132.01,155.48 M131.6,174.02
		 M131.92,172.15c0.02-0.81,0.54-0.26,1.08-0.24C132.98,172.44,132.45,172.43,131.92,172.15z M132.65,175.39
		c-0.27-0.01-0.54-0.01-0.81-0.02c0.27-0.26,0.27-0.26,0.28-0.53C132.66,174.85,132.93,174.86,132.65,175.39z M132.67,174.32
		c-0.01,0.27-0.27,0.26-0.54,0.26C132.14,174.3,132.41,174.31,132.67,174.32z M132.76,170.55 M133.31,157.4 M133.47,174.6
		c-0.01,0.27-0.27,0.26-0.54-0.01C132.94,174.32,133.2,174.6,133.47,174.6z M133.28,171.1 M133.26,171.91 M134.03,149.08
		 M134.53,175.43c0.01-0.27-0.26-0.28-0.27-0.01c-0.26-0.28-0.53-0.55-0.51-1.09c1.07,0.02,1.06,0.56,1.59,0.84
		c0.54,0.01,1.63-0.77,2.15-0.22c-0.55,0.79-1.89,0.5-2.7,0.75C135.07,175.44,134.8,175.44,134.53,175.43z M134.05,173
		 M135.22,131.63c0.24,1.08,0.27-0.26,1.07,0.29C136.84,131.4,135.23,131.09,135.22,131.63
		C134.68,131.62,135.22,131.63,135.22,131.63z M134.53,175.43c-0.27,0.26-0.54,0.26-0.27-0.01L134.53,175.43z M134.83,174.09
		c-0.01,0.27-0.28,0.26-0.54-0.01C134.3,173.81,134.56,174.09,134.83,174.09z M136.2,172.78c0.26,0.28,0.26,0.54,0.25,1.08
		c-0.8-0.29-0.81-0.02-1.88-0.31C134.86,172.75,135.92,173.31,136.2,172.78z M134.79,175.71 M135.77,143.47 M135.41,172.22
		 M135.35,174.91 M135.69,171.69 M136.83,156.4C136.57,155.85,136.57,156.12,136.83,156.4C136.82,156.93,137.1,156.4,136.83,156.4z
		 M138.35,173.1c0.27,0.01,0.81,0.02,1.07,0.29c-0.55,0.53-1.61-0.04-2.43,0.48c-0.8-0.29,0.29-0.8,0.29-1.07
		c0.27,0.01,0.53,0.28,0.8,0.29C138.08,173.09,138.34,173.36,138.35,173.1z M137.49,150.77c0.27-0.26,0.28-0.53,0.55-0.8
		c-0.27-0.01-0.53-0.28-0.8-0.29c-0.01,0.27-0.01,0.27-0.01,0.54C137.5,150.23,137.23,150.49,137.49,150.77z M137.08,169.3
		l-0.27-0.01C136.82,169.03,137.09,169.04,137.08,169.3z M137.93,142.98c0.27,0.01,0.54,0.01,0.54-0.26
		C138.2,142.72,137.94,142.71,137.93,142.98z M137.91,144.05 M137.85,146.74c0.26,0.27,0.8,0.29,0.81,0.02
		C138.38,146.75,137.85,146.47,137.85,146.74z M137.85,170.93 M138.36,172.29c-0.28,0.26-0.27-0.01-0.54-0.01
		C137.83,172.01,138.1,172.02,138.36,172.29z M139.79,144.1c-0.53-0.28-0.53-0.55-0.79-0.56c0.29-0.8-1.07-0.02,0,0
		C138.44,144.34,139.77,144.63,139.79,144.1z M138.35,173.1l-0.27-0.01C138.08,172.82,138.35,172.83,138.35,173.1z M138.84,175.26
		c0.02-0.81,0.81-0.25,1.08-0.24C139.9,175.55,139.37,175.54,138.84,175.26z M140.82,170.73c-0.25-0.81-0.54,0.26-1.61-0.3
		c0.01-0.27,0.28-0.53,0.29-0.8c-0.01,0.54,1.07,0.29,0.54,0.01c0.56-0.8,0.53,0.28,1.07,0.29
		C141.1,170.2,141.09,170.47,140.82,170.73z M140.18,175.29 M141.41,131.5 M140.54,171.26 M141.03,173.42
		c-0.01,0.27-0.28,0.26-0.54,0.26C140.49,173.41,140.76,173.42,141.03,173.42z M141.95,131.51 M141.7,142.79 M142.71,169.97
		c-0.79-0.56-0.56,1.06-1.62,0.5c0.27-0.26,0.28-0.53,0.01-0.54c0.54-0.26,1.36-0.78,1.62-0.23L142.71,169.97z M142.22,143.34
		 M141.83,173.44 M141.83,173.44 M142.67,172.12c-0.01,0.27-0.27,0.26-0.54,0.26C142.13,172.1,142.4,172.11,142.67,172.12z
		 M146.46,170.59c-0.27-0.01-0.28,0.26-0.01,0.27c-0.28,0.26-0.54,0.26-0.55,0.53c-0.27-0.01,0.01-0.54-0.24-1.08
		c-0.82,0.52-2.97,0.74-2.95-0.33c0.81,0.02,1.06,0.56,1.62-0.23c1.61,0.04,3.8-1.53,4.84,0.11c1.09-0.78,2.69,0.06,3.76,0.08
		c-1.64,1.31-4.83-0.38-6.47,0.93L146.46,170.59z M142.72,169.7 M142.89,174.27c0.01-0.27-0.25-0.81,0.03-1.34
		c0.79,0.56,1.34,0.03,1.6,0.57C143.98,173.49,143.43,174.01,142.89,174.27z M143.34,153.58 M142.87,175.34 M144.41,141.78
		 M144.37,143.66 M144.17,152.53 M144.33,169.73 M145.18,143.14 M145.6,173.26c-0.28,0.26-0.54,0.26-1.08,0.24
		C144.79,173.24,145.07,172.97,145.6,173.26z M145.72,131.05 M145.44,143.68 M144.75,175.12 M145.09,172.17
		c0.54,0.01,0.81-0.25,1.35-0.24C146.15,172.46,145.62,172.45,145.09,172.17z M145.98,143.69 M146.3,141.28 M148.29,173.31
		c-0.01,0.27,0.26,0.27,0.27,0.01c0.27,0.01,1.89-0.5,1.6,0.57c-1.89,0.23-2.96-0.06-4.56-0.37c0.55-0.79,1.88,0.04,2.44-0.75
		c0.27,0.01,0.53,0.28,0.53,0.55L148.29,173.31z M147.13,140.22l0.26,0.28c0.26,0.54,0.27,0.01,0,0
		C147.4,140.23,147.14,139.96,147.13,140.22C146.07,139.66,146.84,141.02,147.13,140.22z M146.6,139.68
		c0.27,0.01,0.54,0.01,0.54-0.26C146.88,139.41,146.61,139.41,146.6,139.68z M146.34,151.77c0.27,0.01,0.53,0.28,0.81,0.02
		C146.88,151.51,146.61,151.5,146.34,151.77z M146.09,175.15 M147.21,148.83c0.26,0.28,0.53,0.28,0.54,0.01
		C147.48,148.83,147.22,148.56,147.21,148.83z M146.71,171.4 M146.7,171.93c0.27,0.01,0.81,0.02,1.34,0.03
		C147.77,172.23,146.69,172.74,146.7,171.93z M147.03,169.52 M147.92,140.78c0.27,0.01,0.54,0.01,0.54-0.26
		C148.2,140.52,147.93,140.51,147.92,140.78z M147.83,145.08 M148.42,130.31c0.26,0.27,0.53,0.28,0.81,0.02
		C148.96,130.32,148.7,130.04,148.42,130.31z M147.44,175.18 M148.53,137.84 M148.41,142.94 M148.23,151.27 M148.77,139.18
		 M148.73,140.8 M148.62,145.63c0.27,0.01,0.53,0.28,0.54,0.01C148.9,145.37,148.63,145.37,148.62,145.63z M148.94,143.49
		 M148.33,171.16 M148.33,171.16 M149.23,142.69 M148.52,174.93 M148.52,174.93 M149.64,148.34 M150.4,150.51
		C150.67,150.25,150.4,150.24,150.4,150.51C149.86,150.77,150.39,150.78,150.4,150.51z M150.84,130.36 M149.92,172.27
		 M149.92,172.27 M150.15,173.89 M151.18,139.51 M150.45,172.55c0.28-0.53,0.82-0.79,1.62-0.5
		C151.8,172.58,151.25,172.84,150.45,172.55z M150.7,173.63 M150.7,173.63 M150.67,174.98 M150.67,174.98 M151.72,139.25
		 M151.49,150 M150.97,173.37c0.01-0.27,0.54,0.01,0.81,0.02C152.3,174.21,151.5,173.65,150.97,173.37z M151.47,175.27
		 M152.85,173.68c-0.56,0.8-0.53-0.55-1.07-0.29C152.06,172.86,152.58,173.68,152.85,173.68z M152.01,175.01 M152.55,175.02
		 M153.61,138.75c0.27,0.01,0.81,0.02,0.81-0.25C154.16,138.5,153.62,138.49,153.61,138.75z M152.85,173.68 M153.19,170.2
		 M153.36,175.04 M154.28,144.95 M153.73,170.21c2.2-2.1,4.58-0.44,6.73-0.39c1.07,0.02,1.89-0.5,3.23-0.2
		C160.71,170.63,157.23,170.02,153.73,170.21z M154.98,150.07c0.27,0.01,0.54,0.01,0.54-0.26
		C155.25,149.81,154.98,149.8,154.98,150.07z M155.68,130.2 M155.84,171.87 M155.81,173.48c0.01-0.27,0.28-0.53,0.81-0.25
		C156.34,173.76,156.34,173.76,155.81,173.48z M157.4,137.76c0.27,0.01,0.54,0.01,0.81-0.25C157.94,137.5,157.67,137.5,157.4,137.76
		z M156.62,173.23 M158.11,129.98 M158.51,173c-0.01,0.27-0.01,0.54-0.02,0.81c-0.27-0.01-0.53-0.28-0.8-0.29
		c0.01-0.27,0.27-0.26,0.28-0.53C158.24,172.99,158.24,172.99,158.51,173z M159.29,137.26 M158.76,173.81 M159.31,173.29
		 M160.32,139.17 M160.39,148.58 M160.7,146.7 M161.14,138.92 M160.39,173.04 M161.75,147.53l0.27,0.01c-0.29,0.8,1.07,0.02,0,0
		C162.03,147.27,161.76,147.27,161.75,147.53C160.69,146.97,161.47,148.34,161.75,147.53z M162.72,140.03
		c0.27,0.01,0.53,0.28,0.54,0.01C163,139.77,162.73,139.76,162.72,140.03z M161.99,173.34 M163.92,134.41 M164.71,135.5
		c0.54-0.26-0.52-0.82-0.8-0.29c0.27,0.01,0.27,0.01,0.26,0.27C164.44,135.5,164.44,135.5,164.71,135.5z M163.96,169.63
		 M165.55,133.64 M165.48,137.13c0.27,0.01,0.53,0.28,0.54,0.01C165.75,136.87,165.48,136.86,165.48,137.13z M166.28,137.42
		 M166.63,133.39 M166.98,129.64C166.73,129.1,166.72,129.36,166.98,129.64C167.24,130.18,167.25,129.64,166.98,129.64z
		 M167.84,139.87 M167.71,145.78 M168.33,129.67 M168.51,145.8 M169.93,130.24c0.54-0.26-0.51-1.09-0.79-0.56
		c0.26,0.27,0.26,0.27,0.26,0.54C169.66,130.24,169.66,130.24,169.93,130.24z M169.68,141.52 M170.38,134.01
		C169.85,134,170.38,134.28,170.38,134.01c0.27,0.01,0.27,0.01,0.28-0.26c0.27-0.26,0.01-0.27,0,0
		C170.39,133.75,170.39,133.75,170.38,134.01z M169.56,171.36 M169.56,171.36 M170.68,144.77l-0.27-0.01c-0.26-0.27-0.27-0.01,0,0
		C170.41,145.04,170.68,145.04,170.68,144.77c0.26,0.28,0.27,0.01,0.28-0.26c1.6,0.57,0.82-0.79,0,0
		C170.7,144.24,170.69,144.51,170.68,144.77z M170.51,140.47 M170.88,135.91 M172.05,144 M172.3,144.54c0.8,0.29,1.61,0.04,1.89-0.5
		c0.28-0.26,0.01-0.27,0,0C173.4,143.76,172.33,143.47,172.3,144.54z M174.75,130.88 M179.34,142.54c-0.54-0.01-1.07-0.29-1.08,0.24
		C178.79,143.07,179.33,142.81,179.34,142.54z M179.81,133.14c0.27,0.01,0.54,0.01,0.54-0.26
		C180.09,132.88,179.82,132.88,179.81,133.14z M180.01,136.38 M179.97,137.99 M180.14,142.83 M180.72,140.69 M181.43,132.64
		C181.17,132.37,181.17,132.64,181.43,132.64C181.69,133.19,181.7,132.65,181.43,132.64z M182.86,141.28
		c-0.26-0.28-1.35,0.51-0.56,0.79C182.31,141.53,183.12,141.82,182.86,141.28z M182.5,132.94 M183.39,141.56 M184.68,131.91
		 M184.75,141.05 M185.11,136.49C186.18,137.05,185.4,135.69,185.11,136.49C184.57,136.75,185.11,136.76,185.11,136.49z
		 M185.41,135.42 M185.83,140.54C186.63,140.82,185.85,139.46,185.83,140.54C185.29,140.79,185.82,140.8,185.83,140.54z
		 M186.37,140.28 M187.74,139.23c-0.26-0.28-0.26-0.28-0.53-0.28c-0.28,0.26-0.54,0.26-0.55,0.53
		C187.2,139.49,187.46,139.77,187.74,139.23z M187.43,141.11c0.28-0.53,1.36-0.51,1.64-1.04c-0.51-1.09-1.07-0.02-1.87-0.31
		C186.91,140.29,187.17,140.83,187.43,141.11z M188.98,131.73 M189.62,139.54C190.42,139.83,189.64,138.47,189.62,139.54l-0.27-0.01
		c0.56-1.06-1.34-0.03,0,0C189.34,139.81,189.61,139.81,189.62,139.54z M190.43,139.29c1.07,0.02,0.52,0.82,1.05,1.1
		c0.03-1.34,0.29-0.8,0.84-1.33c-0.54-0.01-0.51-1.09-1.07-0.29c0.27,0.01,0.27,0.01,0.26,0.27
		C191.23,139.31,190.44,138.75,190.43,139.29z M193.4,138.55l-0.27-0.01c-0.54,0.26-0.82,0.79-0.29,0.8
		C192.85,139.08,193.13,138.81,193.4,138.55l0.26,0.28c-0.27,0.26-0.27,0.26-0.28,0.53c0.54,0.01,1.62-0.23,1.09-0.78
		c0.01-0.27,0.01-0.27-0.26-0.27l0.01-0.27c-0.8-0.29-0.8-0.29-0.55,0.53C193.41,138.28,193.41,138.28,193.4,138.55z M192.6,138.26
		c0.27,0.01,0.54,0.01,0.54-0.26C192.88,138,192.61,137.99,192.6,138.26z M193.67,138.56l-0.01,0.27c0.27,0.01,0.54,0.01,0.81-0.25
		c-0.27-0.01-0.27-0.01-0.26-0.27C193.95,138.29,193.94,138.56,193.67,138.56z M194.25,136.69 M194.73,139.39 M196.09,138.61
		c-0.53-0.28-1.07-0.29-1.08,0.25C195.54,138.87,195.82,138.6,196.09,138.61c0.27,0.01,0.27,0.01,0.28-0.26
		c0.8,0.29,0.82-0.52,1.07,0.29c0.28-0.53,0.02-0.81-0.51-1.09c-0.28,0.53-0.55,0.53-0.56,0.8
		C196.09,138.34,196.09,138.34,196.09,138.61z M195.29,138.05 M195.53,139.67 M195.85,137.26 M197.71,138.38 M198.52,137.86
		 M200.16,136.82c0.27,0.01,0.54,0.01,0.54-0.26C200.43,136.56,200.17,136.55,200.16,136.82z M200.69,137.37 M203.12,136.61
		c0.26,0.27,0.53,0.28,0.54,0.01C203.39,136.62,203.4,136.35,203.12,136.61z M203.68,135.82
		C203.95,135.56,203.68,135.55,203.68,135.82C203.14,135.81,203.67,136.09,203.68,135.82z M204.25,134.22 M204.77,135.04
		C205.04,135.04,204.77,134.77,204.77,135.04C204.22,135.29,204.76,135.3,204.77,135.04z M208.25,135.65
		c-0.79-0.56-0.81,0.25-1.88-0.04c0.01-0.27,0.01-0.54-0.26-0.54c-0.28,0.26-1.07-0.02-1.1,1.05c0.27,0.01,0.81,0.02,1.07,0.29
		c0.01-0.27,0.01-0.27,0.01-0.54C206.62,136.42,207.7,136.18,208.25,135.65z M205.65,131.83 M206.1,135.87l0.27-0.26
		C206.11,135.33,205.83,135.6,206.1,135.87z M207.72,135.1c0.27,0.01,0.27,0.01,0.54,0.01c-0.28,0.53,1.31,1.64,1.34,0.3
		c-0.81,0.25-0.54,0.26-1.34-0.3c0.01-0.27,0.54,0.01,0.54-0.26c0.27,0.01,0.26,0.28,0.53,0.28c0.54-0.26-0.51-1.36-0.53-0.28
		C208.81,134.59,208.01,134.3,207.72,135.1z M212.03,134.66 M213.38,134.42 M214.29,129.87 M216.09,133.67 M218.51,133.46
		c0.26,0.54,0.54,0.01,1.08-0.25c-0.02,0.81,0.26,0.28,0,0l0.01-0.27c1.06,0.56,0.28-0.53,0,0
		C219.06,132.93,218.79,133.19,218.51,133.46z M220.69,132.16 M221.48,132.98C222.02,132.73,221.75,132.72,221.48,132.98
		C220.94,133.24,221.47,133.25,221.48,132.98z M222.57,132.2 M223.64,132.49C223.92,132.23,223.65,132.22,223.64,132.49
		C223.1,132.48,223.64,132.76,223.64,132.49z M226.34,132.02 M243.35,128.36"/>
</g>
</svg>
