<?xml version="1.0" encoding="utf-8"?>
<!-- Generator: Adobe Illustrator 21.1.0, SVG Export Plug-In . SVG Version: 6.00 Build 0)  -->
<svg version="1.1" id="Layer_1" xmlns="http://www.w3.org/2000/svg" xmlns:xlink="http://www.w3.org/1999/xlink" x="0px" y="0px"
	 viewBox="0 0 288 288" style="enable-background:new 0 0 288 288;" xml:space="preserve">
<style type="text/css">
	.st0{fill:#FF3300;}
</style>
<path class="st0" d="M93.1,100.9c0.1,0.5,0.5-0.1,0.9,0c-0.2,0.4,0.3,0.3,0.2,0.7c-0.9,0-0.8,1.3-1.8,0.6c-0.1,0-0.6,0.6-0.1,0.5
	c-0.1,0.4-0.4-0.1-0.5-0.1c-0.1,0.1-0.3,0.2-0.4,0.3c0,0.3,0.5,0.1,0.6,0.3c-1.6,1.5-3.5,3.3-4.2,5.2c0,0.3-0.3,0.2-0.5,0.2
	c-0.2,0.4,0.1,0.5,0,0.8c-0.7,0.2-1.1,0.6-1.8,0.6c-1.5-1.2-3-2-3.6-3.7c-0.9,0-1.1-0.9-1.4-1.5c-0.3-0.4-0.9-1-0.9-1.5
	c-0.6-2.3,1.4-4,2.5-5.7c0.4,0.2,0.3-0.3,0.7-0.2C87.6,91.4,95,87.2,103.5,85c2.7-0.2,4.4,0,6.2,1.4c-0.2,0.5,0.3,0.4,0.3,0.8
	c2.5,2.1,4.1,4.9,5.9,7.6c0,0.3-0.2,0.7,0.2,0.7c-0.2,0.5-0.4,1,0.2,1.2c-0.5,0.6-0.2,2.2,0.4,2.5c-0.2,1.6-0.4,3-0.6,4.7
	c-0.2,0-0.4-0.1-0.6-0.1c0.2,0.5,0.5,0.7,0.2,1.3c-0.1-0.4-0.4-0.6-0.1-0.9c-0.5-0.2-0.2,0.5-0.3,0.7c0.1,0.3,0.3,0.4,0.6,0.5
	c0,0.3-0.1,0.5-0.4,0.5c0.4,1.8-1,3.5-1.2,5.1c0.4-0.2,0.3,0.6-0.3,0.6c0.2,0.3,0.3,0.4,0.3,0.6c-1.2,0.9-0.2,2.7-1.6,3.4
	c0,0.3,0.2,0.3,0,0.6c-0.9,1.2-0.8,3.4-1.9,4.4c-0.1-0.4,0.5-0.7,0-0.8c0.1-0.4,0.6-0.6,0.3-1c-1.3,2.8-2.3,6-3.1,8.8
	c0.1,0.1,0.2,0.3,0.5,0.3c0.1,0.5-0.5,0.7,0,0.9c-0.1,0.6-0.2,1.3-0.8,1.2c-0.3,1.6-1.1,2.5-1.3,4.2c-0.1,0-0.2-0.3-0.3-0.3
	c0.4,0.9,0,1.2,0.1,1.8c-0.9,0.1-0.1,1-0.8,1.3c-0.6-0.1,0.3-0.7-0.1-1c-0.3,0.3-0.2,1.1-0.8,1.1c0.2,0.5-0.4,1.2,0.2,1.4
	c-0.7,0.3-0.3,1.5-1.1,1.8c0.1,0.1-0.1,0.5,0.3,0.4c-0.1,0.5-0.7,0.3-0.6,0.9c0.5,0.1,0.5-0.3,0.9-0.3c-0.2,0.4,0,1.2-0.7,1.2
	c0.1-0.1,0.2-0.6,0.1-0.8c-0.2,0.4-0.6,0.6-0.7,0.8c-0.1-0.1-0.1,0,0,0c-0.4,1-0.5,1.7-0.5,2.5c0.2,0,0.8-0.3,0.7,0.2
	c0.5-0.1,0.4-1,1-0.9c0.2,0.2-0.3,0.3,0.1,0.5c0.7-0.5,1.1-1.8,1.6-2.6c0.3,0.3,0.4-0.5,0.2-0.5c-0.3,0.1,0,0.3-0.2,0.5
	c-1,0.1-1,1.9-1.7,2.1c1-2,1.7-4.4,3.3-5.8c-0.1,0.1-0.2,0.5-0.1,0.6c-0.1,0-0.1,0-0.1,0.1c-0.1,0-0.3,0.1-0.3,0.2
	c0.1,0.1,0.2,0.3,0.3,0.4c0.2,0-0.1-0.5,0-0.6c0.1,0,0.1,0,0.1-0.1c0.1,0,0.2,0,0.4,0.1c0.1-0.6-0.1-0.9-0.2-1.3
	c0.9,0.1,1.4-0.8,1.5-1.7c0.4-0.5,0.9-0.8,1-1.5c0.2,0,0.6,0.5,0.5-0.2c0.1,0,0.1,0.3,0.2,0.3c0.1,0,0.2-0.2,0.2-0.4
	c0.1,0,0.1,0,0.1-0.1c-0.1-0.1-0.1,0-0.1,0.1c-0.8-0.2,0.4-1.4,0.7-1.2c0.5-1.2,1.2-2,1.6-3.3c0.1,0,0.1,0.1,0.4,0.2
	c-0.1-0.8,0.4-1.4,1-1.7c0.2-0.5-0.3-0.4-0.1-0.8c0.7,0.5,0.7-0.8,1.3-1.1l0.1,0c0,0.1,0,0.1,0.1,0.1c0.1,0.1,0.1,0.4,0,0.6
	c1,0.1,0.6-1.3,1.6-1.5c-0.1-0.4,0.3-0.3,0.2-0.9c0.5-0.1,0.3-0.3,0.5-0.8c-0.4-0.1-0.4,0.3-0.7,0.5c-0.2-0.3-0.3-0.7-0.3-1.3
	c0.1,0,0.1,0.1,0.1,0.3c0.1,0.3,0.4-0.3,0.8-0.2c-0.3-0.3-0.2-0.4-0.4-0.7c0.2-0.2,0.3-0.7,0.7-0.3c0.3-0.2-0.2-0.3,0-0.6
	c0.4,0.1,0.5-0.1,1.1,0.3c-0.2,0.2-0.4,0.3-0.2,0.6c-0.4-0.1-0.3,0.5-0.5,0.6c0.2,0,0.7-0.3,0.5-0.6c0.3-0.1,0.4-0.5,0.6-0.8
	c0.6-0.4,1.3-1.4,1.4-2c0.3-0.1,0.3-0.2,0.2-0.4c-0.1,0-0.2,0.2-0.2,0.4c-0.7,0.4-1.4,0.8-1.5,1.9c-0.1,0-0.4-0.1-0.5-0.1
	c0.1-0.5,0.5-0.3,0.5-0.8c0.4-0.1,0.2-0.2,0.1-0.5c0.6-1.7,1.7-3,2.9-4.6c0,0.1,0,0.3,0.1,0.3c0.2,0.2,0.3-0.6,0.1-0.5
	c0-0.3,0.2-0.2,0.2-0.5c0.1,0,0.2,0.2,0.5,0.2c-0.1-0.4-0.3-0.7-0.7-0.5c1-1.5,2-2.9,3.3-4c-0.2,0.5-0.6,0.8-0.8,1.3
	c0.5,0.2,0.3-0.3,0.6-0.4c0,0.1,0.1,0.3,0.1,0.4c0.1,0,0.2-0.2,0.2-0.4c0.3-0.1,0.2-0.2-0.1-0.3c0.1-0.4,0.3-0.5,0.8-0.3
	c-0.1-0.5,0.3-1.1,0.3-1.6c0.1,0,0.1,0,0.1-0.1c0.2,0.2,0.8,0.4,0.4,0.7c0.2,0,0.3-0.1,0.4-0.2c0-0.3-0.1-0.3-0.2-0.4
	c0.2-0.4,0.6-0.4,0.8-0.7c0-0.1,0-0.3-0.2-0.3c0.1-0.4,0.5-0.2,0.6-0.6c0.3-0.1,0.3-0.3,0.8-0.2c-0.2-0.5,0-0.3,0.3-0.5
	c-0.3-0.3-1.1-0.5-0.6-1.1l0.1,0c0,0.1,0,0.1,0,0.3c0.3-0.1,0.5-0.2,0.6-0.6c0.3-0.1,0.4-0.3,0.5-0.6c-0.4-0.1-0.4,0.2-0.5,0.6
	c-0.4-0.2-0.3,0.2-0.4,0.3l-0.1,0c0.7-1.2,1.4-2.1,2.3-2.9c0,0.1-0.1,0.4-0.1,0.5c-0.1,0-0.1,0-0.1,0.1c-0.2,0-0.3,0.2-0.3,0.5
	c0.4,0.2,0.3-0.2,0.3-0.5c0.1,0,0.1,0,0.1-0.1c0.2,0,0.3-0.2,0.3-0.5c1.3-0.2,0.6-1.3,0,0c-0.1,0-0.1,0-0.2,0
	c0.3-0.6,0.8-1.1,1.3-1.4c0,0.1,0,0.1,0,0.3c-0.1,0-0.3,0.1-0.3,0.2c0.2,0,0.3-0.1,0.3-0.2c0.7-0.3,1.8-0.3,1.3-1.4
	c0.1,0,0.1,0,0.1-0.1c-0.1,0-0.1,0-0.1,0.1c-0.3,0.1-0.4,0.3-0.6,0.6l-0.1,0c0.1-0.6,0.6-0.7,0.8-1.2c0.2,0,0.2,0.4,0.2,0.7
	c0.7-0.4,0.6-1.5,1.7-1.6c0-0.1,0-0.3-0.2-0.3c0.2-0.4,0.4-0.1,0.6,0.1c0.2-0.4-0.1-0.5,0-0.8c0.4,0.1,0.4,0.2,0.3,0.6
	c0.4-0.3,0.2-0.6,0.1-1c0.1,0,0.1,0,0.1-0.1c0.2,0,0.2-0.4,0.3-0.5c0.4,0.1,0.3-0.3,0.6-0.4c0.1,0,0.1,0.3,0.1,0.5
	c0.1,0,0.3-0.2,0.4-0.2c0,0.1,0,0.3-0.1,0.4c0.2,0,0.3-0.2,0.6,0c-0.4,0.1-0.5,0.7-1,0.6c0.1,0.1,0.2,0.2,0.2,0.4
	c-0.2,0-0.4-0.2-0.3-0.3c-0.5,0.6-0.9,1-1,1.8c0.4-0.2,0.7-0.7,1-1.1c0.1,0.1,0.2,0.2,0.4,0.2c0.3-0.5,0.3-1.2,0.9-1.4
	c0.1-0.4-0.4-0.4-0.8-0.5c0.2-0.5,0.2-0.5,0.1-1c0.5-0.2,0.4-0.3,0.6-0.8c-0.4,0.2-0.5,0.7-1,0.8c0.5-1,1.6-1.7,2-2.7
	c0.9-0.3,1.5-1,1.9-1.9c0.5-0.1,1.1-0.6,1-1.1c0.1-0.1,0.4-0.1,0.6,0c0.3-0.2-0.1-0.3,0.2-0.5c0.7-0.3,1-1,1.6-1.5
	c0.8-0.7,1.3-1.2,2.1-2.3c0.5-0.3,0.9-0.8,1.5-0.8c0-0.3-0.1-0.3-0.1-0.5c0.3-0.1,0.4-0.2,0.8-0.2c-0.1-0.8,1.4-0.7,1.4-1.6
	c0.7-0.3,1.9-0.8,1.8-1.5c0.1,0,0.1-0.1,0-0.1c0-0.3,0.2-0.2,0.4-0.2c0,0.1,0,0.3-0.1,0.4c0.9-0.8,1.5-2,2.8-2.7c0.1,0.3,0.1,0,0,0
	c0-0.1,0-0.1,0-0.3c0.2,0,0.2,0.2,0.3,0.3c0.1-0.8,1.2-0.4,1.2-1.3c0.2,0,0.4,0.1,0.3,0.3c0.3-0.1,0.5-0.2,0.7-0.4
	c-0.7-0.2,1.1-0.7,0.8-1.4c0.2,0,0.4,0.1,0.6,0.1c4.7-3.5,10.2-7.9,17.1-6.7c0,0.3,0.4,0.2,0.2,0.5c1.5,0.1,1.3,1.3,2.3,1.9
	c0,0.1-0.3,0.1-0.4,0.1c0.2,0.7,0.9,0.9,0.9,1.7c-0.2-0.2-0.1-0.4-0.4-0.2c-0.1,0.4,0.5,0.3,0.4,0.7c-0.2,0.4-0.2-0.2-0.5-0.1
	c0,0.1,0,0.3,0.2,0.3c-0.2,0.4-0.4,0.3-0.6,0c0.1,0.5,0.7,0.6,0.3,1.5c-1-0.3-1.1,0.4-1.8,0.1c0.1,0.9,1.1,0,1.6,0
	c-0.1,0.4,0.2,0.5,0.4,0.7c-0.6,0.7-1.5,1-2.6,0.9c-1,0.9-2.5,0.8-3.6,1.4c-0.1,0-0.2-0.2-0.2-0.3c-1.4,0.8-2.8,1.8-4.5,2.3
	c0.1,0.4-0.2,0.4-0.2,0.6c-3.3,1.2-5.5,3.7-8.4,5.4c-4,3.3-8.1,6.7-11.6,10.6c-0.2,0-0.4-0.1-0.5,0.1c-1.1,1.9-2.9,2.9-4.2,4.8
	c-1.6,0.8-2.1,2.8-3.8,3.6c-1.6,2.4-3.2,3.9-5.1,6c-2.8,3.9-5.8,7.4-8.6,11.2c-3.4,5.4-7.2,10.5-10.4,16.3c-1.6,1.7-2.2,4.1-3.7,5.9
	c-3.4,6.5-6.6,12.6-9.8,19.1c-1.3,3.7-3.5,6.1-4.9,9.4c-1,0.2-2.8-0.8-2.7,0.8c-1-0.4-2.9,0.1-3-0.9c-1,0-1.1-0.2-2-0.4
	c0-0.3,0.1-0.4-0.1-0.5c-0.4-0.2-0.4,0.2-0.8,0c0.4-0.8-1.4-0.6-0.8-1.3c0-0.3-0.4,0.1-0.6-0.1c2.1-17.8,6.8-33.5,12.6-50.7
	c0.1-0.1,0.2-0.5,0.5-0.6c2.7-9,6.8-16.9,7.2-27c-0.1,0-0.2,0-0.4-0.2c-0.1,0-0.2,0.2-0.2,0.4c-1.6-0.1-2.6,1.3-4.3,1.9
	c-1.8-0.9-2.7,1.2-4.1,0.9c0,0.1,0.2,0.2,0.3,0.3c-0.3,0.1-0.3,0.5-0.5,0.7c-0.7-0.2-1,0-1,0.8c-0.6-0.5-0.8,0.3-1.3,0.2
	c0,0.3,0.2,0.5-0.1,0.8c-0.4-0.2-0.3-0.3-0.7-0.1c0,0.1,0.1,0.3,0.2,0.3C95,98.9,94.1,100.3,93.1,100.9z M85.3,110.1 M92.5,102
	 M96.3,99 M97.1,98.4 M97.5,98.3 M88.4,172.4 M96.3,174.3 M100.5,152.9c0.1,0,0.2,0,0.3-0.1C100.6,152.8,100.5,152.8,100.5,152.9z
	 M101.4,149.1c0.1,0,0.2,0,0.3-0.1C101.5,149,101.4,149,101.4,149.1z M102,145.6c0,0.3-0.3,0.6-0.1,0.9c0.1-0.1,0.2-0.4,0.5-0.3
	c0.2-0.4-0.3-0.3-0.3-0.6c0.1-0.1,0-0.1,0,0L102,145.6z M101.1,152.1c0.1,0,0.2,0,0.3-0.1C101.2,152,101.1,152,101.1,152.1z
	 M101.9,148.2 M102.9,143.6 M102.8,144.4 M103.1,142.8 M103.1,146.5c-0.2-0.2-0.7,0.3-0.3,0.3C102.8,146.7,103.1,146.6,103.1,146.5z
	 M102.6,149.1c0.1,0,0.2,0,0.3-0.1C102.8,149,102.7,149,102.6,149.1z M104,140.2 M102.4,151.8 M104.5,139.4c0,0.1-0.1,0.1-0.3,0.1
	C104.2,139.3,104.3,139.3,104.5,139.4z M102.9,150.6 M105.1,135.6c0.1,0,0.2,0,0.3-0.1C105.2,135.5,105.1,135.5,105.1,135.6z
	 M104.9,137.2 M106.1,132.9c0-0.3-0.1-0.3-0.3-0.3c0,0.1,0,0.1,0,0.3C105.9,132.9,106,132.9,106.1,132.9z M106.5,131.7
	c-0.1-0.1,0.2-0.6,0-0.6c-0.2,0.2-0.3,0.3-0.5,0.6C106.2,131.6,106.4,131.6,106.5,131.7z M106.3,130.5 M106.1,132
	c0,0.1,0,0.3-0.1,0.4C106.4,132.7,106.5,131.9,106.1,132z M104.1,146.6 M104.3,145.8 M102.3,161.7c0.1,0,0.4,0.1,0.4-0.1
	C102.6,161.6,102.3,161.5,102.3,161.7z M106.9,128.8c0.1,0,0.2,0.3,0.2,0C107.2,128.7,106.9,128.6,106.9,128.8z M106.7,130.7
	 M103,161.1c-0.4-0.1-0.5-0.1-0.5,0.3C102.7,161.5,102.9,161.4,103,161.1z M106.9,129.7c-0.2,0.2-0.3,0.6,0.2,0.7
	C106.9,130,107.4,129.7,106.9,129.7z M105.6,144.1c-0.1,0-0.1-0.1-0.4-0.2c-0.1,0.6-0.2,0.6-0.4,1.2
	C105.3,145.2,105.5,144.6,105.6,144.1z M103.9,151.7 M104.5,150.5c-0.7,0.5,0.7-0.2,0-0.1L104.5,150.5z M106.2,140.7
	c-0.6-0.3-0.9,0.9-0.2,0.9C105.8,141.2,106.1,141.1,106.2,140.7z M107.6,127.7c-0.4,0.1,0,0.8,0.2,0.4
	C107.5,128.1,107.7,127.7,107.6,127.7z M107.5,128.8c0-0.1,0.1-0.1,0.2-0.2c-0.1,0-0.1-0.1-0.4-0.2c0,0.1,0,0.3-0.1,0.4
	C107.4,128.8,107.4,128.8,107.5,128.8z M104,152.8c0.1,0,0.2,0,0.3-0.1C104.2,152.7,104,152.7,104,152.8z M105.8,143.5
	C106.2,143.6,105.7,143,105.8,143.5C105.3,143.7,106.1,143.9,105.8,143.5z M106.1,140.3 M105.4,147.3
	C105.5,147.2,105.4,147.2,105.4,147.3C105,147.3,105.4,147.8,105.4,147.3z M108.6,127.5c-0.2,0.2-0.7-0.2-0.5-0.6
	c0.1,0,0.2,0,0.4,0.1C108.4,127.2,108.5,127.3,108.6,127.5z M106.7,140.2c0-0.3-0.2-0.4-0.3-0.6c0,0.1-0.2,0.2-0.2,0.5
	C106.4,140.1,106.6,140.2,106.7,140.2z M106.5,142.1c0,0.1-0.3,0.1-0.4,0.1c0,0.3-0.1,0.5,0,0.6l-0.1,0c0,0.1,0,0.1-0.1,0.1
	c0,0.1,0,0.1,0,0.3c0.2,0.2,0.3-0.1,0.3-0.3c0.4-0.1,0.9-0.9,0.5-1.1C106.6,141.8,106.6,142.1,106.5,142.1
	C106.4,141.9,106.4,142.1,106.5,142.1z M104,160.5c-0.4,0.1-0.3,0.7-0.6,0.9C103.7,161.4,103.9,161,104,160.5z M108.5,125.8
	c0.1,0,0.4,0.6,0.2,0.7C108.6,126.2,108.3,126.1,108.5,125.8z M108.6,125.3 M108.6,125.3 M108.4,126.9c0-0.1,0.1-0.5,0.2-0.5
	C108.6,126.7,108.5,126.9,108.4,126.9z M108.2,128.7 M103.9,160.2c0.1,0,0.2,0,0.3-0.1C104,160.1,103.9,160.1,103.9,160.2z
	 M106.1,146.1c0.2-0.5,0.8-1.1,0.7-1.4c0.4-0.1,0-0.6,0,0C106.4,144.9,105.8,145.6,106.1,146.1z M109.2,124.1 M105.9,149.3
	c0.1,0,0.2,0,0.3-0.1C106,149.2,105.9,149.2,105.9,149.3z M109.5,123.6 M107.1,141 M107.8,137c0.1-0.8,0.4-1.2,1-1.5
	c0.2,0.3-0.2,0.2-0.1,0.6C108.3,136.1,108.2,136.9,107.8,137z M107.8,137 M107.1,142.9 M107.7,139.8c-0.1,0.4-0.3,0.5,0,0.6
	C107.7,140.2,108.2,139.9,107.7,139.8z M110.5,121c0,0.1-0.1,0.4-0.1,0.5c-0.1,0-0.1,0-0.2,0c0-0.1,0.1-0.4,0.1-0.5
	C110.4,121,110.4,121,110.5,121z M107.1,144.1 M105.3,156.9c0,0.3,0.1,0.4,0.2,0.4C105.6,157.1,105.5,157,105.3,156.9z M107.7,143.1
	c-0.4-0.1-0.4,0.1-0.4,0.5C107.7,143.6,107.7,143.5,107.7,143.1z M106,154.7c0-0.1,0-0.1,0-0.3c-0.1,0-0.1,0-0.2,0
	c0,0.1,0,0.1,0,0.3C105.9,154.7,105.9,154.7,106,154.7z M110.6,120.4 M111.2,117.5c0,0.3-0.3,0.3-0.2,0.7
	C111.2,118.4,111.6,117.5,111.2,117.5z M108,142.8c0-0.1,0-0.1,0-0.3c-0.1,0-0.1,0-0.2,0c0,0.1,0,0.1,0,0.3
	C107.9,142.8,107.9,142.8,108,142.8z M106,156.1 M108.9,135.1c-0.1-0.4,0.2-0.5,0.2-0.7C109.7,134.3,109.2,135.2,108.9,135.1z
	 M111.7,116.9c0-0.3,0.1-0.4-0.2-0.4c0,0.1,0,0.1,0,0.3C111.6,116.8,111.5,116.9,111.7,116.9z M111.4,117.2c0.1,0,0.2,0.3,0.2,0
	C111.6,117.1,111.4,117,111.4,117.2z M111.8,115.9 M108.2,142.2 M107.7,146.1c0.1,0,0.2,0,0.3-0.1C107.8,146,107.7,146,107.7,146.1z
	 M107.3,148.9 M108.8,140.7c0.2,0.5-0.9,0.9-0.3,1.1C108.7,141.7,109.4,140.9,108.8,140.7z M112,115.1 M112,115.6 M109.6,133.8
	 M109.1,137.8c0,0.3-0.1,0.5,0.2,0.4C109.3,138,109.2,137.8,109.1,137.8z M108.8,140.1c0.1,0,0.2,0,0.3-0.1
	C108.9,140,108.8,139.9,108.8,140.1z M108.3,143.6 M107.7,147.9 M112.6,114 M109,142.3c0-0.1,0-0.1,0-0.3c-0.1,0-0.1,0-0.2,0
	c0,0.1,0,0.1,0,0.3C108.8,142.3,108.8,142.3,109,142.3z M108.1,146.8 M109.7,137.2c0.1-0.4,0.6-0.7,0.4-1c0.1-0.1,0-0.1,0,0
	C109.9,136.6,109.2,137,109.7,137.2z M112.4,116 M109.3,139.9c-0.1,0.4-0.3,0.5,0,0.6C109.4,140.3,109.6,140.1,109.3,139.9z
	 M114.6,128.7c-0.5,0.6-1.2,1.4-1.4,2.1c-0.8,0.5-1,1.7-1.6,2.5c-0.6,0.7-0.9,1.8-1.3,2.5c0.4-0.1,0.6-0.7,1-0.8
	c0-0.3-0.1-0.3-0.1-0.5c0.1,0,0.3-0.1,0.5-0.2c0.1,0.3,0.1,0,0,0c0.5-1.9,2.4-3.7,3-5.6c0.4-0.3,0.8-0.7,1.1-1.3
	c-0.6,0-1.1,0.5-1.1,1.3L114.6,128.7z M109.5,141.4c0.1,0,0.2,0.3,0.2,0C109.7,141.4,109.5,141.3,109.5,141.4z M114.6,107.5
	c0-0.1,0-0.3,0.1-0.4c-0.1,0-0.2,0-0.4-0.1c0,0.1,0,0.3,0.1,0.4C114.5,107.4,114.5,107.4,114.6,107.5z M114.2,107.9 M114.4,108.7
	c-0.1,0-0.1,0-0.2,0c0,0.1-0.1,0.1-0.2,0.2C114.3,109,114.4,109,114.4,108.7z M114.8,106.1c0,0.3-0.3,0.3-0.3,0.6
	C114.9,107,115,106.2,114.8,106.1z M110,139 M114.8,105.3c0.1,0,0.2,0.3,0.2,0C115,105.2,114.8,105.2,114.8,105.3z M111.1,132.2
	 M110.2,138.5c0.1,0,0.2,0,0.3-0.1C110.4,138.4,110.3,138.3,110.2,138.5z M115.9,99.1c-0.2,0.4,0.2,0.4,0.6,0.5
	C116.5,99.2,116.2,99.2,115.9,99.1z M111,139.2c-0.2,0-0.5-0.1-0.4,0.2C110.9,139.5,111,139.3,111,139.2z M115.6,102.6
	c0.2,0.3,0.4-0.3,0.2-0.4c0,0.1,0,0.1-0.1,0.1C115.6,102.5,115.6,102.5,115.6,102.6z M111.9,130.9 M111.6,133.3 M109.3,149.9
	 M112.5,129.5c-0.4-0.1,0.1-0.4,0.1-0.5l0.1,0C112.6,129.3,112.6,129.4,112.5,129.5z M112.7,129c-0.1-0.4,0.2-0.5,0.3-0.7l0.1,0
	C113.1,128.7,112.8,128.8,112.7,129z M110.8,146.3c0.1,0.4-0.5,0.1-0.5,0.6C110.7,146.9,111.3,146.4,110.8,146.3z M112.2,133.6
	c0.1,0,0.4,0.1,0.4-0.1C112.4,133.5,112.2,133.5,112.2,133.6z M110.1,148.6 M112.6,134.2c0-0.1,0.1-0.4-0.1-0.4
	c0,0.1-0.3,0.2-0.3,0.3C112.3,134.1,112.5,134.1,112.6,134.2z M112.9,134.5c-0.1,0-0.4-0.1-0.5-0.1c0.1,0.5-0.5,0.8-0.2,1.1
	C112.4,135.2,112.6,134.8,112.9,134.5z M113.1,128.3 M112.1,135.9 M113.6,127.6 M113.6,127.6 M113.3,129.8 M113.2,130.8
	 M113.8,127.3 M113,132.9 M114.3,132.7c-0.4-0.8,0.9-0.9,0.6-1.6c-0.7,0.7-1.9,1.8-1.9,3.2C113.6,134.2,113.5,132.7,114.3,132.7z
	 M114.1,126.8 M113.3,132.6c0.1,0,0.2,0,0.3-0.1C113.4,132.5,113.3,132.5,113.3,132.6z M113.3,136.3 M114.4,133.1
	c0.1,0.4-0.5,0.1-0.5,0.6C114.4,134,114.6,133.3,114.4,133.1z M114,135.1 M113.6,142.6c-0.7-0.2-0.3,0.5-0.6,0.7
	C113.6,143.7,113.3,142.7,113.6,142.6z M115.5,126.5l-0.1,0C115.4,126.3,115.5,126.3,115.5,126.5z M114.3,134.5c0.1,0,0.2,0,0.3-0.1
	C114.4,134.4,114.3,134.4,114.3,134.5z M115.3,130.3c0,0.3-0.4,0.2-0.3,0.6C115.2,130.9,115.6,130.5,115.3,130.3z M115.5,126.5
	c0-0.6,0.6-1.3,1-2c0.9,0.5-0.4,2-1,2.2L115.5,126.5z M115.4,139.7c0-0.3-0.1-0.4-0.2-0.4c-0.4,0.8-1.1,1.3-1.3,2.3
	C114.5,141.1,114.7,140.1,115.4,139.7z M115.8,129.6 M117.2,122.6c-0.1,0-0.1-0.3-0.1-0.5C117.6,122.1,117.1,122.3,117.2,122.6z
	 M116.2,132.2c-0.1,0-0.1,0-0.1-0.1c-0.1,0-0.1,0-0.2,0c-0.1,0.4-0.3,0.3,0.1,0.5C116,132.3,116.1,132.3,116.2,132.2z M116.4,128.6
	 M115.9,133.7 M115.3,139.2 M117.8,126.6c-0.2,0.4-0.6,0.4-0.6,0.8C117.5,127.5,118.2,126.8,117.8,126.6z M116.2,138
	c-0.4-0.2-0.3,0.2-0.4,0.3C116,138.4,116.2,138.2,116.2,138z M119.2,120.8c0-0.3,0.2-0.2,0.1,0L119.2,120.8z M119.2,120.8
	 M117.2,136.2c0.1,0,0.2,0,0.3-0.1C117.3,136.1,117.2,136.1,117.2,136.2z M119.4,121.9c-0.1,0-0.1,0-0.1-0.1
	C119.4,121.7,119.4,121.7,119.4,121.9z M120.3,118c0,0.3-0.1,0-0.2,0C120.1,117.8,120.3,117.9,120.3,118z M118.7,133.7
	c0,0.1-0.3,0.2-0.1,0.4C118.6,134,118.9,133.9,118.7,133.7z M120.1,131.5c-0.3,0.2-0.7,0.3-0.6,0.9l-0.1,0c-0.2,0.2-0.3,0.5-0.5,0.7
	c0.5,0.2,0.8-0.4,0.6-0.7c0.5,0.1,0.6-0.4,0.8-0.9c0.1,0,0.1,0,0.2,0c0.2-0.4-0.2-0.3-0.3-0.4c0,0.3,0.1,0.3,0.1,0.4L120.1,131.5z
	 M121.4,119.4c-0.1-0.4,0.3-0.3,0.3-0.6c-0.4-0.1-0.5,0.3-0.8,0.5C121,119.4,121.3,119.4,121.4,119.4z M121.6,116.2
	c-0.2,0-0.1-0.3,0.1-0.4l0.1,0C121.7,116,121.6,116.1,121.6,116.2z M121.6,121.4c-0.1,0-0.1-0.1-0.4-0.2c-0.1,0.4-0.7,0.8-0.4,1.1
	C121,122,121.4,121.7,121.6,121.4z M121.6,116.9c0,0.1-0.3,0.2-0.1,0.4C121.6,117.1,121.8,117,121.6,116.9z M121.9,115.9l-0.1,0
	c0.1-0.6,0.3-0.7,0.5-1.2l0.1,0C122.3,115.3,122,115.5,121.9,115.9z M122.9,117.3c0-0.3-0.1-0.4-0.2-0.4c-0.4,0.5-0.9,1-1.1,1.6
	C122.4,118.5,122.2,117.4,122.9,117.3z M122.3,115.7c0-0.1,0-0.3,0.2-0.2C122.4,115.6,122.4,115.7,122.3,115.7z M121.1,124.1
	 M120.5,129.8 M120.9,130c0,0.1-0.1,0.4-0.1,0.5c-0.5-0.2-0.7,0.3-0.5,0.6c0.4,0.2,0.4-0.2,0.5-0.6c0.4,0.2,0.3-0.2,0.3-0.5
	c0.4-0.1,0-0.6,0,0C121.1,130.1,121.1,130.1,120.9,130z M123.1,114.1 M122.1,123.4c-0.7,0.5,0.7-0.2,0-0.1L122.1,123.4z
	 M122.9,116.8c0.1,0,0.2,0,0.3-0.1C123,116.7,122.9,116.7,122.9,116.8z M123.4,113.8C123.5,113.7,123.4,113.7,123.4,113.8
	C123.1,113.9,123.4,113.9,123.4,113.8z M121.5,129.6c0.1,0,0.2,0,0.3-0.1C121.6,129.5,121.5,129.5,121.5,129.6z M123.7,115.1
	c0.2,0.5-0.2,0.4-0.2,0.7C123.8,116,124.1,115.2,123.7,115.1z M122.2,128.9c-0.2-0.3-0.4-0.1-0.5,0.2
	C121.9,129.1,122.1,129,122.2,128.9z M124,113.1 M122.3,128.4c0.1,0,0.1,0,0.2,0c0-0.1,0-0.1,0-0.3
	C122.3,128.2,122.3,128.3,122.3,128.4C121.8,128.4,122.2,128.9,122.3,128.4z M124.7,112.3c-0.1,0-0.1,0-0.2,0
	c-0.1,0.1-0.2,0.2,0.1,0.4C124.6,112.5,124.6,112.4,124.7,112.3z M124.1,115.3 M123,127.5c-0.2,0-0.5-0.1-0.4,0.2
	C122.9,127.7,123,127.6,123,127.5z M124.2,116.3c0.1,0,0.2,0,0.3-0.1C124.3,116.2,124.2,116.2,124.2,116.3z M124.2,117.5
	 M124.7,118.3c-0.4-0.1-0.4,0.3-0.7,0.4C124.3,119.2,124.5,118.6,124.7,118.3z M123,127.2c0.5,0.1,0.9-0.9,0.3-0.7
	c0.1,0,0.1,0,0.1,0.1C123.4,126.9,122.9,126.8,123,127.2z M123.9,120.3 M125.1,112.2 M125.7,111.5c-0.1,0-0.1,0-0.2,0
	c0-0.1,0-0.3,0.2-0.2C125.6,111.4,125.7,111.4,125.7,111.5z M124.8,116.4 M125.7,113.8c0-0.3-0.1-0.3-0.1-0.5c0.4-0.1,0-0.6,0,0
	C125.1,113.4,125.3,113.8,125.7,113.8z M126.2,110.2c0,0.1-0.1,0.1-0.3,0.1C125.9,110.2,126,110.2,126.2,110.2z M126.1,109.9
	 M126.2,110.7c0,0.1-0.1,0.1-0.3,0.1C126,110.7,126.1,110.7,126.2,110.7z M124.6,120.9 M126.9,111.4c0,0.1,0,0.3-0.2,0.2l0-0.1
	c-0.1,0-0.1-0.1-0.2-0.2c-0.1,0.1,0,0.3-0.1,0.4l-0.1,0c-0.2,0.2-0.5,0.7-0.3,1c0.4,0.1,0.3-0.3,0.6-0.4c-0.1,0-0.4-0.1-0.4-0.2
	c0.2,0,0.5,0.1,0.6,0c0-0.3,0.1-0.4,0.1-0.6c0.2,0,0.4-0.1,0.4-0.2c-0.2,0-0.4,0.1-0.4,0.2L126.9,111.4z M126.8,109 M126.8,109.4
	 M126.4,111.8c0.1,0.3,0.2,0.2,0.3-0.1C126.6,111.7,126.6,111.8,126.4,111.8z M127.4,108.7c-0.1,0-0.1-0.3-0.1-0.5
	C127.8,108.2,127.3,108.4,127.4,108.7z M126.2,116 M126.6,114c0.4-0.1,0.3-0.1,0.6,0.1c0-0.3-0.2-0.3,0-0.6c0.1,0,0.3-0.2,0.4-0.2
	c0,0.3,0.1,0.3,0.2,0.3c0-0.3-0.2-0.5-0.4-0.6c0,0.3-0.2,0.2-0.2,0.5C127,113.5,126.8,113.9,126.6,114z M127.4,110.2
	c0,0.3-0.1,0.4-0.2,0.5c1.1,0.2,1.2-1.1,1.9-1.4c-0.3-0.3,1.1-0.9,0.4-1.2c-0.6,0.6-1.1,1.5-1.7,1.4
	C128.2,109.8,127.8,110.7,127.4,110.2z M128.1,107.9c-0.1,0-0.1,0-0.1,0.1c-0.1,0-0.1-0.3-0.1-0.4
	C128.1,107.6,128.1,107.8,128.1,107.9z M127.8,108.5 M125.7,123.4c0.1,0,0.2,0.3,0.2,0C126,123.3,125.8,123.2,125.7,123.4z
	 M126.1,121.9 M126.7,122.1c-0.5-0.1-0.4,0.5-0.6,0.7C126.4,122.8,126.6,122.5,126.7,122.1z M128.5,107.8c0,0.1,0,0.1-0.1,0.1
	C128.4,107.8,128.4,107.8,128.5,107.8z M128.3,107.9 M127,118.1 M128.5,107.8c0-0.1,0.4-0.3,0.2,0
	C128.6,107.8,128.6,107.8,128.5,107.8z M128.2,109.8 M129.6,107.8 M128.4,118.6l0.1,0c0.1-0.1,0.3-0.3,0.1-0.4
	C128.4,118.3,128.4,118.5,128.4,118.6C127.9,118.4,128.3,119,128.4,118.6z M129.9,106.8 M130.4,105c0.1,0,0.2,0,0.3-0.1
	C130.5,104.9,130.4,104.9,130.4,105z M130.9,106.8c-0.4,0.1-0.8,0-0.8,0.5C130.5,107.6,130.8,107.2,130.9,106.8z M130.7,110
	c0-0.3,0.6,0.1,0.7-0.3c-0.6,0-0.7-0.4-0.7-0.7c-0.6-0.1-0.5,0.7-0.4,1C130.5,110,130.6,110,130.7,110
	C130.6,110.5,131.5,110,130.7,110z M129.4,118.1 M129.7,117.6c-0.4,0.2,0.1,0.4,0.2,0.2C129.8,117.7,129.8,117.6,129.7,117.6z
	 M130.7,108.9 M131.6,107.7c0.1,0,0.1,0,0.2,0c0.1-0.1,0.2-0.2-0.1-0.4c0,0.1,0,0.1-0.1,0.1C131.7,107.6,131.7,107.6,131.6,107.7z
	 M131.6,109.3 M131.5,109.6 M131.4,110.6 M133.1,101.8c0,0.1,0,0.1-0.1,0.1C133,101.7,133,101.7,133.1,101.8z M133.2,101.6
	c0,0.1,0,0.1-0.1,0.1C133.1,101.6,133.1,101.6,133.2,101.6z M132.4,106.9 M133.3,102.3c0.1,0.3-0.4,0.3-0.1,0.5
	C133.3,102.6,133.6,102.5,133.3,102.3z M133.2,101.6c0-0.1,0-0.3,0.2-0.4l0.1,0C133.5,101.5,133.3,101.7,133.2,101.6z M132.4,107.7
	 M133.4,103.3c0.1,0,0.2,0,0.3-0.1C133.5,103.2,133.4,103.2,133.4,103.3z M133.1,107.4c0.1,0,0.2,0.3,0.2,0
	C133.3,107.3,133.1,107.3,133.1,107.4z M134,103.4c0-0.3,0.1-0.4-0.2-0.4c0,0.1,0,0.1,0,0.3C133.9,103.3,133.9,103.4,134,103.4z
	 M132.7,113.9c0.1,0,0.2,0,0.3-0.1C132.8,113.8,132.7,113.8,132.7,113.9z M134.8,102.2c-0.2-0.2-0.7,0.3-0.3,0.3
	C134.5,102.5,134.8,102.4,134.8,102.2z M135,99.6c0,0.1-0.1,0.1-0.3,0.1C134.8,99.5,134.9,99.6,135,99.6z M135,102.1
	c0.2-0.4,0.7-0.3,0.7-0.7c-0.3-0.3-1.1-0.3-1.1,0.1C135.1,101.5,134.7,102.2,135,102.1z M135.2,99.3 M135.2,100.4
	c0.1,0,0.2,0,0.3-0.1C135.3,100.3,135.2,100.2,135.2,100.4z M135.4,100.5c0,0.1-0.4,0.5-0.1,0.5c0.1-0.1,0.2-0.2,0.2-0.5
	c0.4,0.1-0.1-0.5,0,0L135.4,100.5z M134.6,105.2 M135.8,98.6c0-0.1,0-0.1,0-0.3c0.1,0,0.1,0,0.1-0.1l0.1,0
	C136,98.6,136,98.8,135.8,98.6z M136.1,99.6c-0.2-0.2-0.7,0.3-0.3,0.3C135.9,99.8,136.1,99.7,136.1,99.6z M135.8,100.6
	c-0.3,0.2-0.2,0.6,0.2,0.5C136,100.9,135.9,100.7,135.8,100.6z M136.3,98.2c0,0.1-0.1,0.1-0.3,0.1C136.1,98.2,136.2,98.2,136.3,98.2
	z M136.3,98.2c0.1-0.4,0.1-0.5,0.4-0.5C136.6,97.9,136.5,98.1,136.3,98.2z M136.8,100.2c-0.4-0.4-1,0.1-0.6,0.6
	C136.3,100.5,136.5,100.3,136.8,100.2z M137,97.8c-0.1,0-0.1,0-0.2,0c-0.2-0.3,0.4-0.3,0.4-0.1C137,97.7,137,97.7,137,97.8z
	 M135.4,110.7 M136.5,103.6 M137.5,97.2 M137.7,97.4c0,0.1-0.3,0.2-0.1,0.4C137.7,97.6,137.9,97.5,137.7,97.4z M137.1,101.5
	 M137.4,102.6c-0.1-0.1-0.3-0.3-0.4-0.1c0.1,0-0.1,0.4,0.2,0.4C137.2,102.7,137.3,102.7,137.4,102.6
	C137.8,102.8,137.4,102.2,137.4,102.6z M136,110.1 M138,96.4 M137.3,102.2 M137.8,103.2c-0.4-0.1-0.9,0.4-0.5,0.6
	C137.3,103.3,137.8,103.4,137.8,103.2z M138,98.8 M137.7,103.5 M138.8,96.5c0.1,0,0.2,0,0.3-0.1C139,96.4,138.8,96.4,138.8,96.5z
	 M137.9,107.7c-0.1,0-0.4-0.1-0.4,0.1c0.4,0.1-0.2,0.7,0.3,0.6C137.9,108.1,137.9,107.9,137.9,107.7z M139.1,99.1
	c-0.1,0.4-0.4,0.2-0.3,0.7C139.1,100,139.5,99,139.1,99.1z M139.8,93.9c0,0.1-0.1,0.1-0.3,0.1C139.6,93.9,139.7,93.9,139.8,93.9z
	 M139.4,95.2 M138.6,101.2 M138.5,102.2c-0.3,0.3,0.3,0.4,0.4,0.2C138.8,102.4,138.8,102.3,138.5,102.2z M139,98.7
	c0.1,0,0.2,0.3,0.2,0C139.3,98.6,139,98.6,139,98.7z M139.3,100.5 M139.7,99.8 M141.1,93.6c-0.1,0-0.1,0-0.2,0
	c0,0.1-0.1,0.1-0.2,0.2C140.9,93.8,141.1,93.8,141.1,93.6z M139.5,103.1 M141.4,92.1 M141.4,93.1 M141.3,93.6 M141.7,92.8
	 M142.5,96.9 M144,89.8 M144.5,90.1 M144.9,89.6C145.4,89.8,145,89.2,144.9,89.6C144.5,89.6,145,90.1,144.9,89.6z M145.3,89.7
	c0.4,0.2,0.4-0.2,0.2-0.2c0.1-0.1,0.3-0.3,0.1-0.4c-0.1,0.1-0.3,0.3-0.1,0.4C145.4,89.6,145.3,89.5,145.3,89.7z M145.6,88.3
	 M145.4,91C145.5,90.9,145.4,90.8,145.4,91C145.1,91.1,145.3,91.1,145.4,91z M147.7,86 M148.9,91.6 M150.6,83.5
	c-0.4-0.1,0.1-0.5,0.3-0.3C150.9,83.2,150.7,83.3,150.6,83.5z M153.1,81.2l0,0.1l-0.1,0C153,81.2,153,81.2,153.1,81.2z M152.9,81.3
	 M153.5,81 M155.4,79.9 M156,79.4 M156.8,88.8c0.1,0,0.2,0,0.3-0.1C157,88.7,156.8,88.7,156.8,88.8z M159.7,76.6 M160.6,76.2
	 M160.9,85.1c0.1,0,0.2,0,0.3-0.1C161,85,160.9,85,160.9,85.1z M165.6,82.4c0.1,0,0.2,0,0.3-0.1C165.8,82.3,165.6,82.3,165.6,82.4z
	 M170,79c0.1,0,0.2,0,0.3-0.1C170.1,78.9,170,78.9,170,79z M175.3,68.8 M176.2,68.7c0,0.3-0.5,0.1-0.6,0
	C175.6,68.5,175.9,68.8,176.2,68.7z M176.9,68.9c0,0.1-0.1,0.1-0.3,0.1C176.6,68.9,176.8,68.9,176.9,68.9z M177,69.1 M177.5,77.9
	 M177.9,76.4 M179.5,72.6 M179.4,73.5 M179.7,73.4 M179.3,76.3 M180.4,75.4c-0.1,0.4-0.5-0.1-0.3-0.3
	C180.2,75.1,180.3,75.4,180.4,75.4z M180.4,74.4 M180.9,73.6"/>
<path class="st0" d="M187.3,104.8c0,0.2,0.2,0.2,0.2,0c0.8,0,0,0.6-0.2,0.6c1,2.1-0.2,4.3,0.8,5.6c0,0.4-0.6,0.2-0.4,0.6
	c-0.2,0-0.2,0-0.4,0c0-0.2,0-0.2,0-0.4c-0.2,0-0.2,0.4,0,0.4c-0.6,0.6,0.6,0.8-0.2,1.4c-0.4,0.2,0,0.2,0,0c0.6-0.2,0.4,0.4,0.8,0.4
	c0.6,1.5-0.6,3.1,0.2,5c0,0.2-0.6,0.2-0.4-0.2c-0.4,0.2-0.2,1,0.4,0.8c-0.2,0.4-0.6,0.4-0.8,0.8c0-0.2-0.2-0.2-0.2-0.4
	c-0.6,0.4,0,1-0.4,1.4c0.6,0.2,0.4-0.6,0.4-1l0.2,0c0,0.4,1-0.2,0.6,0.6c-0.6-0.6-0.4,0.4-0.6,0.6c0.6,0.6-0.2,0.8,0.4,1.7
	c-0.2,0-0.4,0.2-0.6,0.2c0,0.2,0.4,0.2,0.6,0.2c-0.2,0.6-0.4,0.6-1,0.4c0.2,1.5-0.4,2.7-0.2,4.3c0,0.4,0.4,0,0.4-0.2
	c1.4,1.7-1.9,4.3,0.2,6.4c-1,0.4-1.1,2.1-1.3,3.1c0,0.2,0.2,0.2,0.4,0.2c0,0.2,0.4,0.2,0.4,0.4c0,0.8-1,0.4-0.6,1.4
	c0,0.4,0.4,0.2,0.8,0.2c0.2,0.8-0.2,0.8-0.4,1.2c-0.2,0-0.2-0.2-0.4-0.2c0-0.2,0.2-0.4,0.2-0.6c-0.2,0.2-0.4,0.2-0.6,0.2
	c0,0.2,0.2,0.4,0.4,0.4c0,1.2-0.8,1.4,0.2,2.1c-0.4,1.4-0.2,2.3,0.4,3.9c-0.8,0.6-0.8,0.6-1.9,1c0,0.4,0,0.8,0.2,0.8
	c0.2,0.4,0.2,0,0,0c0.2-0.6,0.6-1,1.5-0.8c0,2.3-0.8,2.7-0.7,5.2c1,0.8,0,1,0.4,2.1c-0.6-0.4-0.6,0.6-1,0.8c0,0.4,0.6,0.2,0.4,0.6
	c0.4,0-0.2-1,0.6-0.6c0,0.6,0,1-0.2,1.2c-0.2,0-0.2,0-0.4,0c0-0.2-0.2-0.2-0.4-0.2c0,0.2,0.2,0.2,0.4,0.2c0,0.2,0.2,0.4,0.4,0.4
	c-0.6,0.4,0.2,1-0.8,1.2c0.4,3.1,1.2,3.7,1.6,6.8c-0.8-0.8-1,0.4-1.5,0.8c-0.6,0.4,0.6,0.8,0,1.2c0.4,0,0.6-0.2,0.6,0
	c-0.6,0.6-0.2,1,0.2,1.7c-0.2,0-0.2,0.2,0,0.2c0,0.2-0.2,0.2-0.4,0.2c0.2-1-1,0.2,0,0c-0.2,0.4-0.8,0.4-1,0c-0.2-0.2-0.2,0,0,0
	c-0.2,0.8-0.2,0.6,0,1.5c-0.6-0.6-1,0-1.7-0.4c0-0.2,0-0.2-0.2-0.2c-0.4,0.2,0,0.2,0.2,0.2c0,0.2,0,0.2,0,0.4
	c-0.6,0.4-1.4-0.2-1.7,0.6c-0.2-0.2-0.2,0,0,0c-0.8,0.6-0.8-0.8-2.1-0.2c-0.6-0.8-0.8-2.1-1.6-2.7c0.2-1-0.6-2.5-0.8-3.7
	c-1.4-13.3,0.6-30.2,1.6-42.8c-0.6,0.4-0.6,1.2-0.8,2.1c-0.8,0.2-0.2-1-1.2-0.8c0-0.6,0.6-0.6,0.4-1.4c-0.6,0-0.2,1-0.8,1
	c0-2.1,0.8-2.9,0.9-4.8c1,0.4,0.8-1.2,1-2.3c0.4,0.6,0.4,0.4,0.4-0.4c0.2,0,0.2,0,0.4,0c0,0.2,0,0.6,0,0.8c-0.4,0-0.2,0.6-0.4,0.8
	c-0.2,0-0.2,0.2,0,0.2c0,0.2,0,0.4,0,0.6c0.2,0,0.2-0.2,0.4-0.2c0-0.4-0.2-0.4-0.4-0.4l0-0.2c0.6,0,0.6-0.6,0.4-0.8
	c0.6-0.6,0-1.7-0.4-1.9c0.4-0.4,1-1.9,0.4-2.7c-0.6,0.2,0.2,0.6-0.2,0.8c-0.2,0-0.2-0.4-0.4-0.4c0-0.2-0.4-0.2-0.6-0.2
	c0,0.2,0.4,0.2,0.6,0.2c0,0.2-0.2,0.2-0.4,0.2c0.6,0.6,0.2,0.8,0.4,1.9l-0.2,0c-0.2-0.2-0.2,0,0,0c0,0.8-0.2,1.4-0.6,1.9
	c-0.2-0.2-0.2,0,0,0c-1.1,3.5-2.3,6.6-3,10.1c-0.4,0.2-0.4,0.8-0.6,1.2c0.6,0,0.6-0.6,0.6-1.2c0.6-0.2,0.2-1.4,1-1.4
	c-0.4-0.6-0.6-1.9,0.6-1.9c0,0.4-0.2,0.4-0.4,0.6c0,0.2,0.4,0.2,0.4,0.4c0.4,0,0.2-0.6,0.6-0.4c0.2,0.8-0.4,2.1,0.4,2.5
	c-0.2,0.6-0.4,1.4-0.6,2.1c0,0.4,0.6-0.2,0.8,0.2c-0.4,0.4,0,1.2-0.8,1c0.4,0.8,0,2.3-0.6,2.9c-0.8-0.6-0.6,1.2,0,0
	c0,0.4,0,0.8-0.4,0.8c-0.2-0.2-0.2,0,0,0c0.4,0.8-0.8,0.2-1.4,0.2c-0.2,0,0.4,1.9-0.6,1c0,0.6,0.6,0.6,0.8,1c0.4,0,0.2-0.8,0.8-0.6
	c0.4,0.4-0.4,0.4-0.2,1c-0.8-0.2-1.7-0.8-2.3,0c0.8-0.2,0.2,0.4,0.6,1.2c-0.2,0-0.2,0.2-0.2,0.4c0.2,0,0.2-0.2,0.2-0.4
	c0.2,0,0.2,0,0.4,0c0.8,1,0.2,3.5-1.7,3.7c0.2,1.7-1.3,1.9-2.5,2.5c-2.7-0.2-3.9-0.2-7-0.7c-3.5,1.6-8.5-1.9-8.4-5.9
	c-1.2-1.9-1.4-3.5-1.8-6c-2.7,7.6-3.4,14.5-5.7,21.9c-0.2,0-0.2-0.2-0.4-0.2c0.4,3.7-0.9,7.4-1.9,10.5c-2.1,1.4-4.3-0.9-5.8,1
	c-0.4-1-2.1,0-2.9-0.2c0-0.2,0-0.4,0.2-0.6c-0.6,0-1.2,0.2-1.2-0.4c-0.4,0-0.4,0.4-0.4,0.8c-0.8-0.4-1.7,0.2-2.3-0.4
	c-0.4,0.2-0.4,0.8-1,0.8c-0.4-0.6-0.6-0.4-1.7-0.4c0-0.8,0.2-1.2,0.8-1.4c-0.2-2.5,0.7-5,1.7-7.4c-1.2-2.1,2.9-4.7,1.3-6.8
	c0-0.2,0.2-0.4,0.4-0.8c0.6,0.4,0.4,0.2,1.2,0c-0.6-0.8,0-2.3,1.3-2.3c0-0.4-0.6-0.2-0.4-0.6c0.8-0.2,0.2-1.2,0.8-1.9
	c-0.2-0.6-0.4,0.2-0.8,0c0-1.4,1.5-1,1.3-2.7c0-0.4-0.2,0-0.6,0c0.4-0.8,0.8-1.4,1.5-2.1c-0.8-0.6,0.4-1.9,0.6-2.7
	c0.4,0,0.4,0.6,0.8,0.6c0.2-0.6-0.2-0.6-0.2-1c-0.6,0.6-0.8-0.2-1.2-0.4c0-0.4,0.8,0,0.8-0.6c0-0.4-0.6-0.2-0.4-0.6
	c0.4,0.4,0.6,0,0.6-0.6c0.2,0,0.2-0.2,0-0.2c0-0.2,0.2-0.4,0.4-0.6c0-0.4-1,0.2-0.6-0.6c0.4-0.2,1.4,0,1.5-0.6
	c-0.4-0.4-1,0.6-1.4-0.2c0-0.4,0.4-0.4,0.8-0.4c-0.2-2.3,1.7-2.9,2.1-4.3c0.4,0.4,0.4-0.2,1.2,0c0-0.4-0.8,0-1.2-0.2
	c0-0.8,0.4-1,0.4-1.7c-0.6-0.2-0.4,0.4-0.4,0.8c-1.6-3.1,2.1-7,1.3-10.5c0.4,0,0.4-0.2,0.8-0.2c-0.2-0.2-0.2-0.8-0.6-0.8
	c1.2,0,0.4-1.2,0.8-2.9c1.2,0-0.2-1.7,1.3-1.9c0.2-0.6-0.4-0.8-0.2-1.5c0.6,0.2,0.8-0.8,0.4-1c0-0.2,0.2-0.2,0.4-0.2
	c0.2,0.4,0.2,0,0,0c0-0.2,0-0.2,0-0.4c0.8,0,0.8-0.8,0.6-1.2c0.2,0,0.2-0.2,0.2-0.4c-0.2,0-0.2,0.2-0.2,0.4
	c-0.8,0.4,0.4-1.7,0.4-2.5c0.8,0.2,0.6-0.4,1.2-0.4c0.2,0.4,0.2,0,0,0c0-0.4,0.4-0.6,0.6-0.8c0.8,0.4,1,0.4,1.9,0
	c0,0.2,0.2,0.4,0.4,0.6c0.2,0.4,0.2,0,0,0c1,0,2.1-0.6,3.1,0c0,0.2-0.4,0.2-0.6,0.2c0,0.4,0.6,0.2,1,0.2c0.8,1,4.3,0.7,4.5,2.9
	c0.8-0.2,0.6,0.4,1.2,0.4c0,0.2,0.2,0.4,0.4,0.4c-0.2,2.3,1,4.6,1.4,7.3c-0.2,0-0.2,0.2-0.4,0.2c-0.2-0.2-0.2,0,0,0
	c0,0.2,0.2,0.2,0.4,0.2c-0.4,0.8,0.8,1.7-0.2,2.5c0.4,0.8,1.4,2.1,0.6,2.9c0.2-0.8-0.6,0,0,0c0,0.2,0,0.4,0,0.6
	c0.2,0.4,0.4-0.2,0.6,0.2c0.6,2.9,0,4.3,0.8,6.4c-0.2,0-0.6,0-0.8,0c0,0.2,0.2,0.4,0.2,0.8c0.4,0,0.2-0.6,0.6-0.4
	c0,0.4,0.6,2.1-0.2,2.1c0.4,0.4,1,1.7,0.2,2.1c0.4,0.2,0.8,0.2,0.8,1c-0.2,0-0.4,0.2-0.6,0c-0.2,0.8,0.8,0.2,0.8,0.8
	c0.4-0.8,0.2-1.7,0.8-2.7c0.4,0.4,0.4,0,0.8-0.2c-0.2-0.6,0.2-0.8,0.2-1.2c-0.8-0.2-0.2,1-1,1c0.2-1,0.6-2.1,1.5-2.5
	c0.2-0.2,0-0.2,0,0c-0.2,0-0.4,0-0.6-0.2c1.1-3.3,1.7-5.6,3.2-7.8c0-0.2-0.2-0.2-0.4-0.2c1.3-4.1,2.7-7.4,4-10.5
	c0,0.2,0.2,0.4,0.4,0.4c0-0.4-0.2-0.4-0.4-0.4c0-0.6,0.2-1,0.6-1.2c0-0.4-0.6-0.2-0.4-0.8c2.5-2.9,3-10.1,8.7-7.2
	c-0.4,0.4,0.6,1,1.4,0.8c1.4,2.3,5.2,2.9,4.7,6.5L187.3,104.8z M133.5,163.6 M134.7,143.9 M135.8,137.7 M135.8,137.7 M136.3,143.5
	c0.2,0,0.4,0.4,0.4,0C136.7,143.3,136.3,143.3,136.3,143.5z M136.6,134.2 M136.6,138 M137.9,132c-0.8,0.2-0.4-0.8,0-0.2L137.9,132z
	 M137.6,139 M138.4,138.2c0.4-0.4-0.6-0.6-0.6-0.2c0.2,0,0.2,0,0.2,0.2C138.2,138.2,138.2,138.2,138.4,138.2z M138.9,133
	c-0.4,0-0.8,0-0.8,0.6C138.7,133.6,138.9,133.6,138.9,133z M138.7,127.2c-0.2,0-0.2-0.4-0.2-0.8C139.1,126.2,138.9,127,138.7,127.2z
	 M138.6,143.4 M139,141.9c-0.4,0.4,0.2,0.6-0.2,1C139.4,142.9,139.4,142.1,139,141.9z M139.6,126c0,0.2-0.2,0.2-0.4,0.2
	C139.1,126,139.4,126,139.6,126z M139.1,127.8 M140.4,124.5c-0.2,0.6-0.6,1-1,1.2c0.2-0.6-0.2-1,0.2-1.9
	C140,123.9,140.2,124.3,140.4,124.5z M139.3,133.4c0.2,0,0.4,0,0.4-0.2C139.5,133.2,139.3,133.2,139.3,133.4z M139.5,136.9
	c0,1.2-0.2,1.4-0.2,2.3c1.4-0.2,1.3-1.6,1.1-2.7c0.6,0-0.2-0.8,0,0C139.9,136.7,139.7,136.9,139.5,136.9z M139.5,140.5 M139.7,136.1
	l0.2,0c0.2-0.2,0.4-0.6,0-0.6C139.7,135.7,139.7,135.9,139.7,136.1C139.3,136.3,139.7,136.3,139.7,136.1z M139.7,137.8 M140,127
	 M139.9,135.1c0.2,0,0.4,0,0.4-0.2C140.1,134.9,139.9,134.9,139.9,135.1z M140.8,131.6c0,0.4-0.6,0.2-0.6,0.6
	C140.5,132.8,141.4,132,140.8,131.6z M140.3,133.4c0,0.4,0,0.8,0.4,0.6C140.7,133.6,140.5,133.4,140.3,133.4z M141.4,129.1
	c-0.4,0-0.2-0.6-0.6-0.6c0.2,0.6-0.6,1,0,1.2C140.8,129.3,141.4,129.5,141.4,129.1z M140.5,134.9 M141.3,114.8
	c0,0.2-0.2,0.2-0.4,0.2C140.9,114.8,141.1,114.8,141.3,114.8z M140.8,126c0.2,0,0.4,0,0.4-0.2C141,125.8,140.8,125.8,140.8,126z
	 M141.2,131.4C141,131.2,141,131.4,141.2,131.4C141.4,131.8,141.4,131.4,141.2,131.4z M141.4,132.4
	C141.6,132.2,141.4,132.2,141.4,132.4C140.8,132.4,141.6,133.2,141.4,132.4z M141.2,124.1 M141.4,123.5c0.2,0,0.4,0,0.4-0.2
	C141.6,123.3,141.4,123.3,141.4,123.5z M141.4,128.5 M142,129.7c-0.2,0.4-0.8,1-0.2,1.4c0-0.6,0.6-0.6,0.4-1.4c0.2-0.2,0-0.2,0,0
	L142,129.7z M141.9,116.9 M141.8,127.2c0.4,0,0.8,0,0.8-0.4c-0.6,0.2,0.2-1-0.4-1c-0.2,0.2-0.2,0.8,0,1
	C142,126.8,141.8,126.8,141.8,127.2z M141.8,134.3 M142.1,124.1c1.2-0.2-0.2,1.4,0.8,1.5c0,0.2,0,0.6,0.2,0.6
	c0.2-0.2,0.2-0.4-0.2-0.6c0-0.8,0-0.4,0.4-0.2c0-0.6,0.4-0.8,0.6-1.2c0,0.2,0,0.2,0.2,0.2c0-0.6-0.6-0.6-0.4-1.5
	c-0.6,0.2-0.4-0.4-0.4-0.8c0.2-0.2,0.8,0,0.8-0.4c-0.4,0-0.4-0.2-0.6-0.2c-0.2,0.2-0.2,0.4-0.2,0.6
	C142.9,122.7,142.9,123.9,142.1,124.1z M142.1,123.1c0.2,0,0.4,0.4,0.6,0C142.5,123.1,142.3,122.7,142.1,123.1z M142.1,124.5
	 M143,108.6c0,0.2-0.2,0.2-0.4,0.2C142.6,108.6,142.8,108.6,143,108.6z M142.7,127.9c0.2,0,0.4,0,0.4-0.2
	C142.9,127.7,142.7,127.7,142.7,127.9z M143.1,129.3c0-0.2,0-0.2,0-0.4c-0.2,0-0.2,0-0.4,0c0,0.2,0,0.2,0,0.4
	C142.8,129.3,142.8,129.3,143.1,129.3z M142.9,124.1c0.2-0.2,0.2-0.4,0.2-0.8C143.7,123.1,143.7,124.6,142.9,124.1z M142.9,128.7
	 M143.3,127 M143.5,120.2c-0.2,0.6,0,0.8,0.6,0.6C144.4,120.2,143.7,120.4,143.5,120.2z M143.8,105.9 M143.7,125.2 M144.3,129.3
	c-0.4,0.4-0.8,0.8-0.2,1.2C143.9,129.9,144.9,129.5,144.3,129.3z M144.2,119.2C144.8,118.8,143.5,118.6,144.2,119.2
	C143.7,119.4,144.2,119.4,144.2,119.2z M144.3,104.7c-0.4-0.4,0.2-1,1-1C144.9,104.1,144.9,104.7,144.3,104.7z M144.1,123.5
	 M144.4,108.8 M144.6,112.1 M144.6,118.4 M144.9,125 M145.3,109.7 M146.1,143.8c0-0.4,0.4-0.4,0.2-1c-0.6,0-1.2-0.2-1.2,0.4
	C145.4,143.4,145.2,144,146.1,143.8z M146.1,114.6c-0.4-0.2-1,0.6-0.4,0.6C145.6,115,146.1,114.8,146.1,114.6z M145.7,111.1
	C145.9,110.9,145.7,110.9,145.7,111.1C145.3,111.3,145.7,111.3,145.7,111.1z M146.1,109.3C146.1,108.4,144.9,109.5,146.1,109.3
	C146.3,109.7,146.3,109.3,146.1,109.3z M145.9,112.2c0.2,0,0.4,0,0.4-0.2C146.1,111.9,145.9,111.9,145.9,112.2z M147.1,111.3
	c-0.6,0-0.8-0.8-1,0C146.3,111.5,147.1,111.7,147.1,111.3z M146.1,140.7 M147.3,109.9C147.5,110.5,148.4,109.7,147.3,109.9
	c0-0.2,0-0.2-0.2-0.2c-0.2-0.2-0.2,0,0,0C147.1,109.9,147.1,109.9,147.3,109.9z M147.5,110.5 M148.4,112c0.2,0,0.4,0,0.4-0.2
	C148.6,111.8,148.4,111.8,148.4,112z M148.3,123.6 M148.8,110.9 M149,110.5 M149,130.6 M150.9,99.4c0,0.2,0,0.4,0,0.6
	c-0.2,0-0.4-0.4-0.6-0.4C150.3,99.4,150.7,99.4,150.9,99.4z M153.2,133.5c-0.6,0.2,0,1.5,0.4,1C153,134.4,153.6,133.7,153.2,133.5z
	 M154.5,118c-0.2,0-0.6,0-0.6,0.2c0.2,0,0.4,0.4,0.6,0.4C154.5,118.4,154.5,118.2,154.5,118z M154.3,121.1
	C154.5,120.9,154.3,120.9,154.3,121.1C153.9,121.3,154.3,121.3,154.3,121.1z M154.3,121.7 M154.6,138.3
	C154.8,137.5,154,138.3,154.6,138.3C154.8,138.7,154.8,138.3,154.6,138.3z M154.7,122.6C154.5,122.4,154.5,122.6,154.7,122.6
	C154.5,123.4,155.3,122.6,154.7,122.6z M156,115.7c0,0.4,0.2,0.6,0.4,0.6C156.4,116,156.2,115.7,156,115.7z M156.2,117 M157.2,117
	 M157.5,113.7 M158.7,116.2c-0.6-0.4-0.8,0.8-0.4,0.8C158.1,116.4,158.7,116.6,158.7,116.2z M158.2,117.6 M159.4,104 M159.3,117.2
	 M159.7,119.9 M160.1,117.4 M161.1,119.7 M161.5,125.5 M162.1,122.4 M162.7,128.2 M164.4,129.9 M164.4,131.1 M166.3,123.9
	c0,0.2,0,1.4,0.2,0.8C166.5,124.5,166.5,123.3,166.3,123.9z M166.5,126.8 M166.9,125.8C166.5,126,166.9,126,166.9,125.8
	c0.2,0,0.2-0.4,0.2-0.8c0.6-0.2-0.2-1,0,0C166.9,124.9,166.9,125.6,166.9,125.8z M166.8,133.4C167.4,133.4,166.6,132.6,166.8,133.4
	C166.4,133.6,166.8,133.6,166.8,133.4z M167.7,130.5c0,0.8-0.8,1-0.6,2.1C167.7,132.6,168.1,131.2,167.7,130.5z M167.8,135.9
	C168.1,135.7,167.8,135.7,167.8,135.9C167.4,136.1,167.8,136.1,167.8,135.9z M168.7,125.6C169,125.4,168.7,125.4,168.7,125.6l-0.2,0
	c0.2,0.6-0.2,0.6-0.2,1c0.2,0,0.2,0,0.4,0c0,0.2,0,0.4,0,0.6c-0.2,0-0.2,0.2,0,0.2c0,0.2,0,0.2,0,0.4c-0.2,0-0.2,0-0.2,0.2
	c-0.6,0.2-0.4,1-0.6,1.4c0.6-0.2,0.8-0.8,0.6-1.4c0.2,0,0.2,0,0.2-0.2l0.2,0c0-0.2,0.2-0.2,0.4-0.2c-0.4-1.2,0-1.7,1.3-1.9
	c0-0.4,0-0.6,0-1c-1,0.2-0.4-0.2-0.2-0.6c-1.2-0.2-1,1-1,2.1c-0.4-0.2-0.2,0.4-0.6,0.4C168.7,126.2,168.7,126,168.7,125.6z
	 M168.1,135.3 M168.7,127.2c0.2,0,0.2,0.2,0,0.2L168.7,127.2z M168.9,135.9 M169.5,132.8c0-0.6,0-1,0.4-0.6c-0.6-1.5,1-1.9,0-2.9
	c0,0.6-0.4,1,0,1.4C169.1,130.7,168.5,132.8,169.5,132.8z M169.1,135.1c0.2,0,0.4,0,0.4-0.2C169.3,134.9,169.1,134.9,169.1,135.1z
	 M169.4,115 M170,122.7C170.2,122.5,170,122.5,170,122.7C169.4,122.7,170.2,123.5,170,122.7z M169.8,126.8 M169.9,138.4 M170.1,138
	 M170.4,121c-0.2,0.8,0.8,1,0.8,0.4C170.6,121.6,170.9,121,170.4,121z M170.8,126.2c0,0.8-0.4,1.4-0.4,2.1c1,0,0.6-1.4,0.8-1.7
	c0.2,0.2,0.4,0.4,0.4,0.8c-0.4,0.2,0,0.2,0,0l0.2,0c-0.8-1.9,0.6-2.7,0-4.1C171.7,124.3,171.2,125.2,170.8,126.2
	C170.6,126,170.6,126.2,170.8,126.2z M170.4,128.9 M170.3,133.2 M170.6,122.3 M170.8,131.2 M170.7,135.7 M170.7,136.8 M171,130.8
	 M171.2,130.1C171.8,129.7,171,128.9,171.2,130.1C170.8,130.3,171.2,130.3,171.2,130.1z M171.2,135.5 M171.2,136.1 M171.6,128.3
	C171.8,127.4,171,128.3,171.6,128.3C171.6,128.9,172.5,128.1,171.6,128.3z M171.4,133.7 M171.7,118.5 M172.4,129.5
	c-0.2,0.8-0.2,0.6,0,1.4c-0.6,0.4-0.6,1.2-0.8,1.9c1.2-0.2,0.6-0.8,0.8-1.9c1,0-0.2-0.8,0.4-1.2c0.6,0,0-1.2-0.2-0.4
	c0.2,0,0.2,0.2,0.2,0.4C172.7,129.7,172.7,129.5,172.4,129.5z M171.5,139.7 M171.9,119.4C171.5,119.6,171.9,119.6,171.9,119.4
	c0.2,0,0.2,0,0.2-0.2c0.2-0.2,0-0.2,0,0C171.9,119.2,171.9,119.2,171.9,119.4z M172.1,122.9C171.9,122.7,171.9,122.9,172.1,122.9
	C172.3,123.3,172.3,122.9,172.1,122.9z M172.2,106.1 M172.1,118.8 M172.1,122.5c0.8,0.2,1.5-1.9,0.6-1.4c0.2,0,0.2,0,0.2,0.2
	C172.3,121.2,172.3,122.1,172.1,122.5z M172,127.2 M172,129.9 M172.4,105.7 M172.3,116.3 M172.3,118.1 M172.3,126.6 M172.7,126
	c0.6,0,0.4-0.6,0-0.8C172.7,125.4,172.7,125.8,172.7,126C172.3,126.2,172.7,126.2,172.7,126z M172.8,114.4 M173,104.9 M173.3,119.8
	l-0.2,0c-0.2,0.2-0.2,0.4-0.2,0.8C173.5,120.8,173.3,120.2,173.3,119.8c0.6,0.4,0.6-0.8,0.2-0.8c-0.2-0.2-0.2,0,0,0
	C173.3,119.2,173.3,119.4,173.3,119.8z M172.8,132.4c0,0.4,0,0.8,0.2,0.8C172.8,132.8,173.7,132.4,172.8,132.4z M172.8,136.2
	 M173.2,104.5 M173.1,128.1 M173.4,114.4 M173.4,115 M173.3,123.9 M173.3,131.8 M173.8,137.2c-0.4-0.2-0.4-0.4-0.4-1
	C173.8,136.4,174.3,136.8,173.8,137.2z M174,116.9c0.2,0.6-0.6,0.8,0,1C174.2,117.7,174.8,116.9,174,116.9z M173.8,118.4
	 M173.7,122.9 M174,121.5 M174.2,120.6 M174.1,131.4 M174.5,103.5 M174.4,110.1 M175.3,113c-0.2,1.2-0.6,2.1-0.9,3.1
	c0.6-0.4,1.3-1.9,1.1-2.3C175.7,113.6,175.7,113,175.3,113z M174.3,126.4 M174.3,128.9 M175.1,129.5c-0.4,0-0.8,0-0.6,0.4
	C174.9,130,175.1,129.7,175.1,129.5z M174.6,119.8c0.2,0,0.4,0,0.4-0.2C174.8,119.6,174.6,119.6,174.6,119.8z M174.5,130.4
	 M174.9,109.9 M174.8,119.4 M175,118.6 M175,124.2 M175,126.4 M175.2,118 M175.1,128.7 M175.6,100.6 M175.5,113.8 M175.4,125
	 M175.4,128.1c0.2,0,0.4,0,0.4-0.2C175.6,127.9,175.4,127.9,175.4,128.1z M175.7,110.7 M175.7,112.6 M175.6,127.5 M175.6,129.5
	 M175.8,116.7c0-0.4,1-1.6,0.2-1.7c-0.2-0.2-0.2,0,0,0C176.1,115.5,175.4,116.5,175.8,116.7z M176,99.7 M176.5,111.3
	c-0.2,0.2-0.6,0.4-0.6,0.8C176.3,112.2,176.9,111.5,176.5,111.3z M176.7,110.3l0,0.2c-0.2,0-0.4,0-0.4,0.2c0.2,0,0.2,0.4,0.4,0.4
	c0.2-0.2,0-0.4,0-0.6C176.9,110.5,176.9,110.3,176.7,110.3l0-0.2c0.2-0.2,0-0.2,0,0C176.5,110.1,176.5,110.3,176.7,110.3z
	 M176.3,116.5 M176.5,114.2 M176.4,121.7 M176.8,125.4c0,0.2-0.2,0.2-0.4,0.2C176.4,125.4,176.6,125.4,176.8,125.4z M178.5,119.4
	c-0.4,0-1-0.6-1.2-0.2c1,0.6-1.5,0.6-0.4,2.1C176.9,119.6,178.1,120.7,178.5,119.4z M177.2,108.4 M177.1,113.8 M177.5,111.6
	 M177.5,118.2 M177.7,120.7 M178,107.2C177.6,107.4,178,107.4,178,107.2c0.2,0,0.2,0,0.2-0.2c0.2-0.2,0-0.2,0,0
	C178,107,178,107,178,107.2z M177.9,115.3l0,0.2C177.7,115.5,177.7,115.3,177.9,115.3z M178.1,121.1 M178.3,118.6 M179.4,171.2
	 M180.8,171 M182,98.1 M182.1,115.3 M183.3,148 M183.7,124.2 M183.5,143.1 M184.1,115.3c0.2,0.4-0.6,0.6,0,0.8
	C184.1,115.9,184.6,115.3,184.1,115.3z M184,105.4c0.2,0,0.4,0.4,0.4,0C184.4,105.2,184,105.2,184,105.4z M183.9,113
	c1,0.6,0.4-0.6,0.8-1.4c-0.2,0-0.4,0-0.6,0c-0.2-0.2-0.2,0,0,0C184.2,112.4,184.6,112.6,183.9,113z M183.9,120.9 M184.4,109.9
	c0,0.6-0.6,1.2,0.2,1.4C184.6,111.2,185,110,184.4,109.9z M184.1,114.1 M184.1,114.9c0.2,0,0.4,0,0.4-0.2
	C184.3,114.7,184.1,114.7,184.1,114.9z M184.1,118 M184,135.2 M184.4,109.3C184.6,109.1,184.4,109.1,184.4,109.3
	C184,109.5,184.4,109.5,184.4,109.3z M184.1,152.6C184.3,153,184.3,152.6,184.1,152.6l0-0.2c0.2-0.2,0-0.2,0,0
	C183.9,152.4,183.9,152.6,184.1,152.6z M184.7,158.8c-0.4-0.2-1,0.6-0.4,0.6C184.2,159.2,184.7,159,184.7,158.8z M184.4,106.8
	 M184.2,132.1 M184.1,146.8c0.4,0.4,0.6-0.6,0.2-0.6c0,0.2,0,0.2-0.2,0.2C184.1,146.6,184.1,146.6,184.1,146.8z M184.1,153.2
	 M184.7,127.3c0.2-0.2,0.4-0.6,0-0.6C184.5,126.9,184.3,127.3,184.7,127.3C184,128,185.5,128,184.7,127.3z M185.2,108.9
	c-0.2-0.2-0.6-0.4-0.6,0c0.2,0.2,0.4,0.4,0.8,0.4c0-0.4,0-0.8-0.2-0.8c0-0.2,0.2-0.2,0.2-0.4c-0.4-0.2-1,0.6-0.2,0.4
	C185.2,108.7,185.2,108.7,185.2,108.9z M184.5,128.4 M184.5,129.2 M184.4,142c0.2,0,0.4,0.2,0.6,0.2c0-0.4,0.2-1.2-0.4-1
	c0,0.2,0,0.4,0.2,0.6C184.6,141.8,184.4,141.8,184.4,142z M184.3,147.2 M184.9,119.1c0.6,0,0-1.2-0.2-0.4
	C184.9,118.6,184.9,118.9,184.9,119.1C184.1,118.8,184.9,119.7,184.9,119.1z M184.8,143.7C184.8,142.9,183.9,143.7,184.8,143.7
	C185,144.1,185,143.7,184.8,143.7z M184.6,142.7C184.4,142.4,184.4,142.7,184.6,142.7C184.8,143.1,184.8,142.7,184.6,142.7z
	 M184.7,120.1c-0.2,0.2-0.2,0.6,0.2,0.8C185.1,120.7,185.1,120.3,184.7,120.1z M184.8,114.1 M184.7,123.4 M184.7,124.2 M184.7,125.1
	 M185.5,134c-0.2-0.6,0.4-0.4,0.4-0.8c-0.2,0-0.4,0-0.6,0c-0.2-0.6,0.4-0.8,0.6-1.2c-1-0.2-0.6,0.8-1.2,1c0.2,0,0.2,0,0.2,0.2
	c0.2,0,0.2,0,0.4,0C185.2,133.8,184.8,133.8,185.5,134z M185.2,141c0-0.2,0-0.6,0-0.8c-0.6-0.2-0.4,0.4-0.6,0.6
	C184.8,140.8,185,141,185.2,141z M184.5,144.7 M184.8,134.4C184.6,134.2,184.6,134.4,184.8,134.4C185,134.8,185,134.4,184.8,134.4z
	 M185,109.7 M184.9,119.7 M185.4,135.8c-0.2,0-0.4-0.4-0.6-0.4c0.2,0.4-0.2,1.2,0.2,1.2C184.8,136,185.4,136.2,185.4,135.8z
	 M185.3,149.7c0-0.4-0.2-0.6-0.4-0.6c0,0.2-0.2,0.2-0.2,0.4C184.9,149.5,184.9,149.7,185.3,149.7z M185.2,107.7 M185.2,110.4
	 M185.2,111.2 M185.2,111.8 M185.2,113.5 M185.2,113.9 M185.2,114.5 M185.2,117 M185.2,118 M185,135c0.2,0,0.4,0,0.4-0.2
	C185.2,134.8,185,134.8,185,135z M185.3,128.2c-0.2,0.4,0,2.3,0,2.7C185.5,130.2,185.9,128.4,185.3,128.2z M185.7,127.1l0.2,0
	c0-0.4-0.2-0.6-0.4-0.8c0.2,0.4-0.6,0.6,0,0.8C185.1,127.8,185.7,128,185.7,127.1z M185.7,159.4c-0.2,0.6-1-0.4-0.4-0.6
	C185.5,158.8,185.3,159.4,185.7,159.4z M185.3,125.5c0.4,0.4,0.6-0.6,0.2-0.6c0,0.2,0,0.2-0.2,0.2
	C185.3,125.3,185.3,125.3,185.3,125.5z M185.6,146.6c0.2-0.2,0.4-1,0-1c0,0.2-0.2,0.2-0.4,0.2C185.2,146.2,185.4,146.4,185.6,146.6z
	 M185,166.3 M185.5,122.2c0,1-0.4,1.9,0.2,2.5C185.5,123.8,185.9,122.6,185.5,122.2z M185.6,119.9c0,0.4-0.2,1,0.2,1
	C185.6,120.3,186.2,120.1,185.6,119.9z M185.6,107.1c0.6,0.6-0.2,3.7,0.8,3.3C186.5,110.2,186.7,106.9,185.6,107.1z M185.5,121.5
	 M185.7,127.1l-0.2,0C185.5,126.9,185.7,126.9,185.7,127.1z M185.7,160.7c-0.2,0-0.2-0.2-0.4-0.2c0-0.2,0-0.2,0-0.4
	C185.7,160,185.7,160.3,185.7,160.7z M185.2,163.4c0,0.4,0.2,0.6,0.4,0.6C185.7,163.6,185.4,163.4,185.2,163.4z M185.8,117
	c-0.2,1-0.2,1.4,0.4,1.9C186.2,118,186.2,117.4,185.8,117z M186,116.4C186.2,116.2,186,116.2,186,116.4
	C185.4,116.4,186.2,117.2,186,116.4z M185.8,114.5 M185.8,119.3 M186,111c0,1.2-0.4,1.7,0.2,2.5c-0.4-0.8,0.8-1,0.2-1.4
	c0-0.4,0-0.8-0.2-1c0.2-0.2,0-0.2,0,0L186,111z M185.9,124.4 M185.9,125.3 M186,137.5 M185.8,169.2c0.2,0,0.2,0.2,0,0.2L185.8,169.2
	z M186.3,133.8C186.1,133.6,186.1,133.8,186.3,133.8C186.5,134.2,186.5,133.8,186.3,133.8z M186.4,112 M186.3,135.8 M186.9,104.6
	c0,0.6-0.6,1,0.2,1.2C186.9,105.4,187.3,104.6,186.9,104.6z M186.6,122.8c0.4,0.4,0.6-0.6,0.2-0.6c0,0.2,0,0.2-0.2,0.2
	C186.6,122.6,186.6,122.6,186.6,122.8z M187.1,107.3c0,1-0.6,2.1,0.2,2.7C187.1,108.7,187.7,107.9,187.1,107.3z M186.9,106.9
	 M186.8,118.9 M186.8,126.3 M187.1,110.8 M187,114.3c0.2,0,0.4,0.4,0.4,0C187.5,114.1,187,114.1,187,114.3z M187,116.4 M187,117.6
	 M187.5,115.1 M188.5,110.2c0,0.2-0.2,0.2-0.4,0.2C188.1,110.2,188.3,110.2,188.5,110.2z M188.1,111.6c0-0.2,0.4-0.4,0-0.6
	C188.3,110.2,188.9,112,188.1,111.6z"/>
</svg>
